<?xml version="1.0" encoding="UTF-8" standalone="no"?>
<!-- Created with Inkscape (http://www.inkscape.org/) -->

<svg
   xmlns:dc="http://purl.org/dc/elements/1.1/"
   xmlns:cc="http://creativecommons.org/ns#"
   xmlns:rdf="http://www.w3.org/1999/02/22-rdf-syntax-ns#"
   xmlns:svg="http://www.w3.org/2000/svg"
   xmlns="http://www.w3.org/2000/svg"
   xmlns:sodipodi="http://sodipodi.sourceforge.net/DTD/sodipodi-0.dtd"
   xmlns:inkscape="http://www.inkscape.org/namespaces/inkscape"
   width="19.04991"
   height="20.84881"
   id="svg7011"
   version="1.1"
   inkscape:version="0.48.3.1 r9886"
   sodipodi:docname="Safety Zone.svg">
  <defs
     id="defs7013" />
  <sodipodi:namedview
     id="base"
     pagecolor="#ff7cff"
     bordercolor="#666666"
     borderopacity="1.0"
     inkscape:pageopacity="1"
     inkscape:pageshadow="2"
     inkscape:zoom="5.6"
     inkscape:cx="7.9894995"
     inkscape:cy="8.2725007"
     inkscape:document-units="px"
     inkscape:current-layer="layer1"
     showgrid="false"
     inkscape:window-width="968"
     inkscape:window-height="815"
     inkscape:window-x="1731"
     inkscape:window-y="161"
     inkscape:window-maximized="0"
     fit-margin-top="0"
     fit-margin-left="0"
     fit-margin-right="0"
     fit-margin-bottom="0" />
  <metadata
     id="metadata7016">
    <rdf:RDF>
      <cc:Work
         rdf:about="">
        <dc:format>image/svg+xml</dc:format>
        <dc:type
           rdf:resource="http://purl.org/dc/dcmitype/StillImage" />
        <dc:title></dc:title>
      </cc:Work>
    </rdf:RDF>
  </metadata>
  <g
     inkscape:label="Layer 1"
     inkscape:groupmode="layer"
     id="layer1"
     transform="translate(-367.24692,-364.62642)">
    <path
       d="m 373.99688,382.77538 0.3,1.04994 0.6,0.89994 0.75,0.59996 1.04999,0.15001 1.05,-0.15001 0.9,-0.59996 0.59999,-0.89994 0.15,-1.04994 -0.15,-1.04994 -0.59999,-0.89995 -0.9,-0.44997 -1.05,-0.29999 -1.04999,0.29999 -0.75,0.44997 -0.6,0.89995 -0.3,1.04994 z"
       style="fill:#a900e6;fill-opacity:1;fill-rule:evenodd;stroke:none"
       id="path5120"
       inkscape:connector-curvature="0" />
    <path
       d="m 376.84687,364.62642 -0.59999,2.09987 -0.75,2.24988 -1.05,2.24987 -1.04999,2.09988 -1.2,2.09989 -1.49998,1.79988 -1.65,1.64992 -1.79999,1.34992 2.69999,-0.89995 2.24998,-1.04994 2.09999,-1.49992 0.9,-0.89994 0.9,-1.04995 1.34999,0 0.9,1.04995 1.04999,0.89994 1.95,1.49992 2.39998,1.04994 2.54999,0.89995 -1.8,-1.34992 -1.64999,-1.64992 -1.49998,-1.79988 -1.2,-2.09989 -1.05,-2.09988 -0.89999,-2.24987 -1.35,-4.34975 z"
       style="fill:#a900e6;fill-opacity:1;fill-rule:evenodd;stroke:none"
       id="path5122"
       inkscape:connector-curvature="0" />
  </g>
</svg>
