<?xml version="1.0" encoding="UTF-8" standalone="no"?>
<!-- Created with Inkscape (http://www.inkscape.org/) -->

<svg
   xmlns:dc="http://purl.org/dc/elements/1.1/"
   xmlns:cc="http://creativecommons.org/ns#"
   xmlns:rdf="http://www.w3.org/1999/02/22-rdf-syntax-ns#"
   xmlns:svg="http://www.w3.org/2000/svg"
   xmlns="http://www.w3.org/2000/svg"
   version="1.1"
   width="25.349871"
   height="30.748249"
   id="svg7011">
  <defs
     id="defs7013" />
  <metadata
     id="metadata7016">
    <rdf:RDF>
      <cc:Work
         rdf:about="">
        <dc:format>image/svg+xml</dc:format>
        <dc:type
           rdf:resource="http://purl.org/dc/dcmitype/StillImage" />
        <dc:title></dc:title>
      </cc:Work>
    </rdf:RDF>
  </metadata>
  <g
     transform="translate(-302.65345,-405.24942)"
     id="layer1">
    <path
       d="m 316.75339,433.44781 0,-25.64854 0,-0.14999 0,-0.15 0.15,-0.14999 0,-0.14998 0,-0.15 0.15,-0.14999 0,-0.14999 0.15,-0.15 0,-0.14999 0.14998,-0.14998 0,-0.15 0.15,-0.14999 0.15,-0.14999 0.15,0 0.15001,-0.14999 0.14999,0 0.15,-0.15 0.15,0 0.15,-0.14998 0.15001,0 0.14999,0 0.15,-0.14999 0.15,0 0.15,0 6.14997,0 0.15,0 0.15,0 0.15,0.14999 0.15,0 0.15,0 0.15,0.14998 0.15,0 0.15,0.15 0.15,0 0.15,0.14999 0.15,0 0.15,0.14999 0.15,0.14999 0,0.15 0.15,0.14998 0,0.14999 0.14998,0.15 0,0.14999 0.15,0.14999 0,0.15 0,0.14998 0.15,0.14999 0,0.15 0,0.14999 0,1.19992 0,0.15 0,0.14999 -0.15,0.15 0,0.15 0,0.14999 -0.15,0.14999 0,0.15 -0.14998,0.14998 0,0.14999 -0.15,0.15 0,0.14999 -0.15,0.14999 -0.15,0.15 -0.15,0 -0.15,0.14998 -0.15,0 -0.15,0.14999 -0.15,0 -0.15,0.15 -0.15,0 -0.15,0 -0.15,0.14999 -0.15,0 -0.15,0 -1.34999,0 0,18.14896 1.34999,0 0.15,0 0.15,0 0.15,0.14999 0.15,0 0.15,0 0.15,0.15 0.15,0 0.15,0.14999 0.15,0 0.15,0.14998 0.15,0 0.15,0.15 0.15,0.14999 0,0.14999 0.15,0.15 0,0.14999 0.14998,0.14998 0,0.14999 0.15,0.15 0,0.14999 0,0.14999 0.15,0.15 0,0.14998 0,0.14999 0,1.19994 0,0.14999 0,0.15 -0.15,0.14998 0,0.14999 0,0.14999 -0.15,0.15 0,0.14999 -0.14998,0.14998 0,0.15 -0.15,0.14999 0,0.14999 -0.15,0.15 -0.15,0.14999 -0.15,0 -0.15,0.14998 -0.15,0 -0.15,0.15 -0.15,0 -0.15,0.14999 -0.15,0 -0.15,0 -0.15,0.14999 -0.15,0 -0.15,0 -6.14997,0 -0.15,0 -0.15,0 -0.15,-0.14999 -0.15,0 -0.15,0 -0.15,-0.14999 -0.15,0 -0.15,-0.15 -0.15,0 -0.15,-0.14998 -0.15,0 -0.15,-0.14999 -0.15,-0.15 0,-0.14999 -0.14998,-0.14999 0,-0.15 -0.15,-0.14998 0,-0.14999 -0.15,-0.15 0,-0.14999 0,-0.14999 -0.15,-0.14998 0,-0.15 0,-0.14999 z m -14.09994,0 0,-1.19994 0,-0.14999 0,-0.14999 0.15,-0.15 0,-0.14998 0,-0.14999 0.15,-0.15 0,-0.14999 0.15,-0.14999 0,-0.14998 0.15,-0.15 0,-0.14999 0.15,-0.14999 0.15,-0.15 0.15,0 0.15,-0.14999 0.15,0 0.15,-0.14998 0.15,0 0.14999,-0.15 0.15,0 0.15,0 0.15,-0.14999 0.15,0 0.15,0 1.35,0 0,-18.14896 -1.35,0 -0.15,0 -0.15,0 -0.15,-0.14999 -0.15,0 -0.15,0 -0.14999,-0.15 -0.15,0 -0.15,-0.14999 -0.15,0 -0.15,-0.14999 -0.15,0 -0.15,-0.14999 -0.15,-0.14999 0,-0.14999 -0.15,-0.15 0,-0.14999 -0.15,-0.14999 0,-0.15 -0.15,-0.14998 0,-0.14999 0,-0.15 -0.15,-0.14999 0,-0.14999 0,-0.15 0,-1.19992 0,-0.14999 0,-0.15 0.15,-0.14999 0,-0.14998 0,-0.15 0.15,-0.14999 0,-0.14999 0.15,-0.15 0,-0.14999 0.15,-0.14998 0,-0.15 0.15,-0.14999 0.15,-0.14999 0.15,0 0.15,-0.14999 0.15,0 0.15,-0.15 0.15,0 0.14999,-0.14998 0.15,0 0.15,0 0.15,-0.14999 0.15,0 0.15,0 6.14997,0 0.15,0 0.15,0 0.15,0.14999 0.15,0 0.15,0 0.14999,0.14998 0.15,0 0.15,0.15 0.15,0 0.15,0.14999 0.15,0 0.15,0.14999 0.15,0.14999 0,0.15 0.15,0.14998 0,0.14999 0.15,0.15 0,0.14999 0.15,0.14999 0,0.15 0,0.14998 0.15,0.14999 0,0.15 0,0.14999 0,25.64854 0,0.14998 0,0.15 -0.15,0.14999 0,0.14999 0,0.14999 -0.15,0.15 0,0.14998 -0.15,0.14999 0,0.15 -0.15,0.14999 0,0.14999 -0.15,0.15 -0.15,0.14998 -0.15,0 -0.15,0.14999 -0.15,0 -0.15,0.15 -0.15,0 -0.14999,0.14999 -0.15,0 -0.15,0 -0.15,0.14999 -0.15,0 -0.15,0 -6.14997,0 -0.15,0 -0.15,0 -0.15,-0.14999 -0.15,0 -0.15,0 -0.14999,-0.14999 -0.15,0 -0.15,-0.15 -0.15,0 -0.15,-0.14999 -0.15,0 -0.15,-0.14998 -0.15,-0.15 0,-0.14999 -0.15,-0.14999 0,-0.15 -0.15,-0.14999 0,-0.14998 -0.15,-0.15 0,-0.14999 0,-0.14999 -0.15,-0.14999 0,-0.15 0,-0.14998 z"
       id="path3030"
       style="fill:#ffffff;fill-opacity:1;fill-rule:evenodd;stroke:none" />
    <path
       d="m 325.45334,433.44781 0,-1.19994 -3.89998,0 0,-23.24868 3.89998,0 0,-1.19992 -6.14997,0 0,25.64854 6.14997,0 z m -20.2499,-25.64854 0,1.19992 3.89998,0 0,23.24868 -3.89998,0 0,1.19994 6.14997,0 0,-25.64854 -6.14997,0 z"
       id="path3032"
       style="fill:#000000;fill-opacity:1;fill-rule:evenodd;stroke:none" />
  </g>
</svg>
