<?xml version="1.0" encoding="UTF-8" standalone="no"?>
<!-- Created with Inkscape (http://www.inkscape.org/) -->

<svg
   xmlns:dc="http://purl.org/dc/elements/1.1/"
   xmlns:cc="http://creativecommons.org/ns#"
   xmlns:rdf="http://www.w3.org/1999/02/22-rdf-syntax-ns#"
   xmlns:svg="http://www.w3.org/2000/svg"
   xmlns="http://www.w3.org/2000/svg"
   version="1.1"
   width="30.749849"
   height="35.697979"
   id="svg7011">
  <defs
     id="defs7013" />
  <metadata
     id="metadata7016">
    <rdf:RDF>
      <cc:Work
         rdf:about="">
        <dc:format>image/svg+xml</dc:format>
        <dc:type
           rdf:resource="http://purl.org/dc/dcmitype/StillImage" />
        <dc:title></dc:title>
      </cc:Work>
    </rdf:RDF>
  </metadata>
  <g
     transform="translate(-299.79267,-402.1577)"
     id="layer1">
    <path
       d="m 299.79267,435.30582 0,-0.74996 0,-0.15 0,-0.14999 0.15,-0.14999 0,-0.15 0,-0.14998 0.15,-0.14999 0,-0.15 0.15,-0.14999 0,-0.14999 0.15,-0.15 0,-0.14998 0.15,-0.14999 0.15,-0.15 0.15,0 0.15,-0.14999 1.19999,-0.74995 0.9,-0.89995 0.75,-0.89995 0.59998,-1.49991 0.6,-1.7999 0.45,-1.7999 0.15,-2.24988 0.15,-2.54985 -0.15,-2.54985 -0.15,-2.09988 -0.45,-1.94989 -0.45,-1.6499 -0.74998,-1.49993 -0.75,-1.04993 -0.9,-0.89995 -1.19999,-0.74995 -0.15,-0.15 -0.15,0 -0.15,-0.14999 -0.15,-0.14999 0,-0.14999 -0.15,-0.15 0,-0.14998 -0.15,-0.14999 0,-0.15 -0.15,-0.14999 0,-0.14999 0,-0.15 -0.15,-0.14998 0,-0.14999 0,-0.15 0,-0.74995 0,-0.15 0,-0.14999 0.15,-0.14999 0,-0.14998 0,-0.15 0.15,-0.14999 0,-0.14999 0.15,-0.15 0,-0.14999 0.15,-0.14998 0,-0.15 0.15,-0.14999 0.15,-0.14999 0.15,0 0.15,-0.15 0.15,0 0.15,-0.14999 0.15,0 0.15,-0.14998 0.14999,0 0.15,0 0.15,-0.15 0.15,0 0.15,0 0.15,0 0.15,0 0.15,0.15 0.15,0 0.15,0 0.15,0.14998 0.15,0 0.15,0.14999 0.15,0 2.09998,1.34993 0.15,0.15 1.79999,1.34991 0.15,0 0.15,0.15 0,0.14999 1.64999,1.7999 0.15,0 0,0.14998 0.15,0.14999 1.2,1.7999 0,0.15 0.15,0.14999 1.04999,2.09987 0,0.15 0.15,0.14999 0.75,2.24988 0,0.14998 0,0.14999 0.45,2.24988 0.15,0.14998 0,0.15 0.15,2.39987 0,0.14998 0,0.14999 -0.15,2.39986 0,0.15 -0.15,0.14999 -0.45,2.39986 0,0.14999 0,0.15 0,0.14999 -0.75,2.09987 -0.15,0 0,0.15 -1.04999,2.09988 -0.15,0.14999 0,0.15 -1.2,1.94988 -0.15,0.14999 0,0.14999 -0.15,0.15 -1.64999,1.6499 -0.15,0.15 -1.79999,1.49991 -0.15,0 -0.15,0.14999 -0.15,0 -2.09998,1.19994 -0.15,0.14998 -0.15,0 -0.15,0.14999 -0.15,0 -0.15,0 -0.15,0.15 -0.15,0 -0.15,0 -0.15,0 -0.15,0 -0.15,-0.15 -0.15,0 -0.14999,0 -0.15,-0.14999 -0.15,0 -0.15,-0.14998 -0.15,0 -0.15,-0.15 -0.15,0 -0.15,-0.14999 -0.15,-0.14999 0,-0.15 -0.15,-0.14999 0,-0.14998 -0.15,-0.15 0,-0.14999 -0.15,-0.14999 0,-0.15 0,-0.14999 -0.15,-0.14998 0,-0.15 0,-0.14999 z m 16.49992,-15.29912 0,-0.14999 0.15,-2.39986 0,-0.15 0.15,-0.15 0.45,-2.24988 0,-0.14999 0,-0.14998 0.74999,-2.24988 0.15,-0.14999 0,-0.15 1.05,-2.09987 0.15,-0.14999 0,-0.15 0.15,-0.14999 1.34999,-1.7999 0,-0.14998 1.5,-1.7999 0.15,-0.14999 0.14999,-0.15 0.15,0 1.8,-1.34991 0.15,-0.15 2.09998,-1.34993 0.15,0 0.15,-0.14999 0.15,0 0.15,-0.14998 0.15,0 0.14999,0 0.15,-0.15 0.15,0 0.15,0 0.15,0 0.15,0 0.15,0.15 0.15,0 0.15,0 0.15,0.14998 0.15,0 0.15,0.14999 0.15,0 0.15,0.15 0.15,0 0.15,0.14999 0.15,0.14999 0,0.15 0.15,0.14998 0,0.14999 0.14999,0.15 0,0.14999 0.15,0.14999 0,0.15 0,0.15 0.15,0.14998 0,0.14999 0,0.15 0,0.74995 0,0.15 0,0.14999 -0.15,0.14999 0,0.15 0,0.14998 -0.15,0.14999 0,0.15 -0.14999,0.14999 0,0.14999 -0.15,0.15 0,0.14998 -0.15,0.14999 -0.15,0.14999 -0.15,0 -0.15,0.15 -1.35,0.74995 -0.74999,0.74996 -0.75,1.19993 -0.75,1.49992 -0.45,1.49991 -0.44998,2.09988 -0.15,2.09989 -0.15,2.54985 0.15,2.54985 0.15,2.24987 0.44998,1.94989 0.6,1.64991 0.6,1.49991 0.75,0.89995 0.74999,0.89995 1.35,0.74995 0.15,0.14999 0.15,0 0.15,0.15 0.15,0.14999 0,0.14999 0.15,0.15 0,0.14998 0.14999,0.14999 0,0.15 0.15,0.14999 0,0.14999 0,0.15 0.15,0.14998 0,0.14999 0,0.15 0,0.74995 0,0.14999 0,0.15 -0.15,0.14999 0,0.14998 0,0.15 -0.15,0.14999 0,0.14999 -0.14999,0.15 0,0.14999 -0.15,0.14998 0,0.15 -0.15,0.14999 -0.15,0.14999 -0.15,0 -0.15,0.15 -0.15,0 -0.15,0.14999 -0.15,0 -0.15,0.14998 -0.15,0 -0.15,0 -0.15,0.15 -0.15,0 -0.15,0 -0.15,0 -0.15,0 -0.15,-0.15 -0.14999,0 -0.15,0 -0.15,-0.14998 -0.15,0 -0.15,-0.14999 -2.09998,-1.19994 -0.15,0 -0.15,-0.14999 -0.15,0 -1.8,-1.49991 -0.14999,-0.15 0,-0.14999 -1.5,-1.64991 -0.15,0 0,-0.14999 -0.15,-0.14998 -1.34999,-1.94989 0,-0.15 -0.15,-0.14999 -1.05,-2.09987 0,-0.15 -0.15,0 -0.74999,-2.09988 0,-0.14999 0,-0.15 0,-0.14998 -0.45,-2.39987 -0.15,-0.14998 0,-0.15 -0.15,-2.39987 0,-0.14998 z"
       id="path3022"
       style="fill:#ffffff;fill-opacity:1;fill-rule:evenodd;stroke:none" />
    <path
       d="m 327.99253,404.70756 -2.09999,1.34992 -1.79998,1.34992 -1.5,1.7999 -1.34999,1.7999 -1.05,2.09987 -0.74999,2.24988 -0.45,2.24987 -0.15,2.39986 0.15,2.39987 0.45,2.39986 0.74999,2.09989 1.05,2.09987 1.34999,1.94989 1.5,1.6499 1.79998,1.49992 2.09999,1.19993 0,-0.74995 -1.49999,-0.89995 -1.2,-1.19994 -0.89998,-1.34992 -0.9,-1.79989 -0.6,-1.9499 -0.45,-2.09988 -0.29999,-2.54985 -0.15,-2.69985 0.15,-2.69985 0.29999,-2.39986 0.45,-2.24986 0.6,-1.9499 0.9,-1.6499 0.89998,-1.49991 1.2,-1.19994 1.49999,-0.89995 0,-0.74995 z m -25.64987,30.59826 2.09998,-1.19992 1.8,-1.49993 1.64999,-1.6499 1.2,-1.94989 1.04999,-2.09987 0.75,-2.09989 0.45,-2.39986 0.15,-2.39986 -0.15,-2.39987 -0.45,-2.24987 -0.75,-2.24988 -1.04999,-2.09987 -1.2,-1.7999 -1.64999,-1.7999 -1.8,-1.34991 -2.09998,-1.34993 0,0.74995 1.35,0.89995 1.34998,1.19994 0.9,1.49991 0.89999,1.6499 0.6,1.9499 0.6,2.24986 0.15,2.39987 0.15,2.69985 -0.15,2.69985 -0.15,2.54985 -0.6,2.09987 -0.6,1.9499 -0.89999,1.79989 -0.9,1.34992 -1.34998,1.19994 -1.35,0.89995 0,0.74995 z"
       id="path3024"
       style="fill:#000000;fill-opacity:1;fill-rule:evenodd;stroke:none" />
  </g>
</svg>
