<?xml version="1.0" encoding="UTF-8" standalone="no"?>
<!-- Created with Inkscape (http://www.inkscape.org/) -->

<svg
   xmlns:dc="http://purl.org/dc/elements/1.1/"
   xmlns:cc="http://creativecommons.org/ns#"
   xmlns:rdf="http://www.w3.org/1999/02/22-rdf-syntax-ns#"
   xmlns:svg="http://www.w3.org/2000/svg"
   xmlns="http://www.w3.org/2000/svg"
   version="1.1"
   width="12.74994"
   height="12.74926"
   id="svg7011">
  <defs
     id="defs7013" />
  <metadata
     id="metadata7016">
    <rdf:RDF>
      <cc:Work
         rdf:about="">
        <dc:format>image/svg+xml</dc:format>
        <dc:type
           rdf:resource="http://purl.org/dc/dcmitype/StillImage" />
        <dc:title></dc:title>
      </cc:Work>
    </rdf:RDF>
  </metadata>
  <g
     transform="translate(-331.08983,-387.66473)"
     id="layer1">
    <path
       d="m 331.08983,393.36439 0,-0.14997 0,-0.14999 0.15,-0.15 0,-0.14999 0,-0.14999 0.15,-0.15 0.29999,-0.74995 0,-0.15 0.15,-0.14998 0,-0.14999 0.75,-1.19994 0.15,-0.14999 0,-0.14998 0.15,-0.15 0.15,-0.14999 0.15,0 1.19998,-0.89995 0.15,-0.14999 0.15,0 0.15,-0.15 0.15,0 0.15,-0.14999 0.15,0 0.15,0 1.49999,-0.29998 0.15,-0.14999 0.15,0 0.15,0 0.15,0 0.15,0 0.15,0.14999 1.49999,0.29998 0.15,0 0.15,0 0.15,0.14999 0.15,0 0.15,0.15 0.15,0 0.15,0.14999 1.2,0.89995 0.15,0 0.15,0.14999 0.14999,0.15 0,0.14998 0.9,1.19993 0.15,0.15 0,0.14999 0.15,0.14998 0,0.15 0.15,0.14999 0,0.14999 0,0.15 0.15,0.74995 0.15,0.74996 0.15,0.14999 0,0.14999 0,0.15 0,0.14998 0,0.14998 -0.15,0.15 -0.15,0.74996 -0.15,0.74995 0,0.14999 0,0.14999 -0.15,0.15 0,0.14998 -0.15,0.14999 0,0.15 -0.15,0.14999 -0.9,1.19994 0,0.14998 -0.14999,0.14999 -0.15,0.15 -0.15,0 -0.15,0.14999 -1.2,0.74995 -0.15,0 -0.15,0.15 -0.15,0 -0.74999,0.29997 -0.15,0.15 -0.15,0 -0.15,0 -0.15,0.14999 -0.15,0 -0.15,0 -1.49999,0 -0.15,0 -0.15,0 -0.15,-0.14999 -0.15,0 -0.15,0 -0.15,-0.15 -0.75,-0.29997 -0.15,0 -0.15,-0.15 -0.15,0 -1.19998,-0.74995 -0.15,-0.14999 -0.15,0 -0.15,-0.15 -0.15,-0.14999 0,-0.14998 -0.15,-0.15 -0.75,-1.19993 0,-0.15 -0.15,-0.14999 0,-0.14998 -0.29999,-0.74997 -0.15,-0.14998 0,-0.14999 0,-0.15 -0.15,-0.14999 0,-0.14999 0,-0.15 0,-1.49991 z"
       id="path3172"
       style="fill:#ffffff;fill-opacity:1;fill-rule:evenodd;stroke:none" />
    <path
       d="m 341.28978,394.11435 -0.15,-0.74996 -0.15,-0.74995 -0.9,-1.19994 -1.19999,-0.89995 -1.5,-0.29997 -1.49999,0.29997 -1.2,0.89995 -0.74998,1.19994 -0.3,0.74995 0,0.74996 0,0.74995 0.3,0.74997 0.74998,1.19992 1.2,0.74996 0.75,0.29999 0.74999,0 0.75,0 0.75,-0.29999 1.19999,-0.74996 0.9,-1.19992 0.15,-0.74997 0.15,-0.74995 z"
       id="path3174"
       style="fill:#000000;fill-opacity:1;fill-rule:evenodd;stroke:none" />
  </g>
</svg>
