<?xml version="1.0" encoding="UTF-8" standalone="no"?>
<!-- Created with Inkscape (http://www.inkscape.org/) -->

<svg
   xmlns:dc="http://purl.org/dc/elements/1.1/"
   xmlns:cc="http://creativecommons.org/ns#"
   xmlns:rdf="http://www.w3.org/1999/02/22-rdf-syntax-ns#"
   xmlns:svg="http://www.w3.org/2000/svg"
   xmlns="http://www.w3.org/2000/svg"
   version="1.1"
   width="23.999889"
   height="23.99865"
   id="svg7011">
  <defs
     id="defs7013" />
  <metadata
     id="metadata7016">
    <rdf:RDF>
      <cc:Work
         rdf:about="">
        <dc:format>image/svg+xml</dc:format>
        <dc:type
           rdf:resource="http://purl.org/dc/dcmitype/StillImage" />
        <dc:title></dc:title>
      </cc:Work>
    </rdf:RDF>
  </metadata>
  <g
     transform="translate(-311.46426,-406.84743)"
     id="layer1">
    <path
       d="m 311.46426,418.84675 0,-0.14998 0.15,-1.79992 0,-0.14998 0.15,-0.14999 0,-0.15 0,-0.14999 0.6,-1.7999 0.14999,-0.14999 0,-0.14998 0,-0.15 0.9,-1.6499 0.15,0 0,-0.15 0.15,-0.14999 1.05,-1.34993 0,-0.14998 0.15,-0.14999 0.14998,-0.15 0.15,0 1.5,-1.19993 0.15,-0.15 0.15001,0 0,-0.14998 1.64998,-0.89995 0.15,0 0.15,0 0,-0.14999 1.64999,-0.59996 0.15,0 0.15,0 0.15,0 0.15,-0.15 0.15,0 1.94999,-0.14999 0.15,0 0.15,0 1.94998,0.14999 0.15001,0 0.14999,0.15 0.15,0 0.15,0 1.80001,0.59996 0.14998,0.14999 0.15,0 0.15,0.15 0.15,0 1.5,0.89993 0.15,0.15 1.49999,1.19993 0.15,0 0.15,0.15 0.15,0.14999 0,0.14998 1.04999,1.34993 0.15,0.14999 0,0.15 0.15,0 0.9,1.6499 0,0.15 0,0.14998 0.15,0.14999 0.6,1.7999 0,0.14999 0,0.15 0.15,0.14999 0,0.14998 0.15,1.79992 0,0.14998 0,0.15 -0.15,1.94988 0,0.15 -0.15,0.14999 0,0.15 0,0.14998 -0.6,1.7999 -0.15,0.14999 0,0.14999 -0.15,0.15 0,0.14999 -0.9,1.49991 0,0.14999 -1.04999,1.49992 -0.15,0 0,0.14999 -0.15,0.14999 -0.15,0.15 -0.15,0 0,0.14998 -1.49999,1.04994 -0.15,0 -1.5,0.89995 -0.15,0 -0.15,0.14999 -0.15,0 -0.14998,0.15 -1.80001,0.59996 -0.15,0 -0.15,0 -0.14999,0.14999 -0.15001,0 -1.94998,0.15 -0.15,0 -0.15,0 -1.94999,-0.15 -0.15,0 -0.15,-0.14999 -0.15,0 -0.15,0 -0.15,0 -1.64999,-0.59996 0,-0.15 -0.15,0 -0.15,0 -1.64998,-0.89995 0,-0.14999 -0.15001,0 -0.15,0 -1.5,-1.04994 0,-0.14998 -0.15,0 -0.14998,-0.15 -0.15,-0.14999 0,-0.14999 -0.15,0 -1.05,-1.49992 0,-0.14999 -0.9,-1.49991 0,-0.14999 -0.15,-0.15 0,-0.14999 -0.14999,-0.14999 -0.6,-1.7999 0,-0.14998 0,-0.15 -0.15,-0.14999 0,-0.15 -0.15,-1.94988 0,-0.15 z m 16.49993,0 1.04998,1.04995 0,-1.04995 0,-1.04994 -1.04998,1.04994 z m -5.54998,5.54969 1.04999,0 0.9,0 -1.05,-1.04995 -0.89999,1.04995 z m 0,-11.09936 0.89999,1.04994 1.05,-1.04994 -0.9,0 -1.04999,0 z m -4.49999,5.54967 0,0.89995 0.9,-0.89995 -0.9,-1.04994 0,1.04994 z"
       id="path3046"
       style="fill:#ffffff;fill-opacity:1;fill-rule:evenodd;stroke:none" />
    <path
       d="m 332.91416,418.84675 -0.15,-1.7999 -0.6,-1.7999 -0.9,-1.64991 -1.04999,-1.34992 -1.5,-1.19992 -1.49998,-0.89995 -1.80001,-0.59996 -1.94998,-0.15 -1.94999,0.15 -1.64999,0.59996 -1.65,0.89995 -1.49999,1.19992 -1.05,1.34992 -0.89998,1.64991 -0.6,1.7999 -0.15,1.7999 0.15,1.94988 0.6,1.79991 0.89998,1.49991 1.05,1.49992 1.49999,1.04995 1.65,0.89995 1.64999,0.59996 1.94999,0.14999 1.94998,-0.14999 1.80001,-0.59996 1.49998,-0.89995 1.5,-1.04995 1.04999,-1.49992 0.9,-1.49991 0.6,-1.79991 0.15,-1.94988 z m -1.35,0 -0.15,1.49992 -0.3,1.34991 -0.59999,1.34992 -0.9,1.04995 -5.24997,-5.2497 5.24997,-5.2497 0.9,1.19994 0.59999,1.19993 0.3,1.34992 0.15,1.49991 z m -2.99999,6.29965 -1.04999,0.74995 -1.2,0.59997 -1.34998,0.29998 -1.5,0.14999 -1.49999,-0.14999 -1.35,-0.29998 -1.34999,-0.59997 -1.05,-0.89995 5.09998,-5.2497 5.24997,5.3997 z m 0.15,-12.4493 -5.39997,5.09972 -5.09998,-5.09972 1.2,-0.89995 1.19999,-0.59996 1.35,-0.29997 1.49999,-0.15 1.5,0.15 1.34998,0.29997 1.2,0.59996 1.19999,0.89995 z m -6.29996,6.14965 -5.24998,5.09972 -0.75,-1.04994 -0.6,-1.19995 -0.29999,-1.34991 -0.15001,-1.49992 0.15001,-1.49991 0.29999,-1.34992 0.6,-1.19993 0.9,-1.19994 5.09998,5.2497 z"
       id="path3048"
       style="fill:#ff0000;fill-opacity:1;fill-rule:evenodd;stroke:none" />
  </g>
</svg>
