<?xml version="1.0" encoding="UTF-8" standalone="no"?>
<!-- Created with Inkscape (http://www.inkscape.org/) -->

<svg
   xmlns:dc="http://purl.org/dc/elements/1.1/"
   xmlns:cc="http://creativecommons.org/ns#"
   xmlns:rdf="http://www.w3.org/1999/02/22-rdf-syntax-ns#"
   xmlns:svg="http://www.w3.org/2000/svg"
   xmlns="http://www.w3.org/2000/svg"
   version="1.1"
   width="17.54991"
   height="18.14896"
   id="svg7011">
  <defs
     id="defs7013" />
  <metadata
     id="metadata7016">
    <rdf:RDF>
      <cc:Work
         rdf:about="">
        <dc:format>image/svg+xml</dc:format>
        <dc:type
           rdf:resource="http://purl.org/dc/dcmitype/StillImage" />
        <dc:title></dc:title>
      </cc:Work>
    </rdf:RDF>
  </metadata>
  <g
     transform="translate(-323.33501,-368.49313)"
     id="layer1">
    <path
       d="m 323.33501,380.49244 0,-5.54969 0,-0.14998 0,-0.15 0,-0.14999 0,-0.14999 0,-0.14999 0.14999,-0.15 0.15,-0.14998 0,-0.14999 0.15,0 0,-0.15 0.15,0 0,-0.14999 0.15,0 0.15,-0.14999 0.15,-0.15 0.15,0 0.15,0 0.15,0 0.15,0 0.15,-0.14998 2.54998,0 0,-2.54985 0,-0.15 0,-0.14999 0,-0.14999 0,-0.15 0,-0.14999 0.15001,-0.14998 0.14999,-0.15 0,-0.14999 0.15001,0 0,-0.14999 0.14999,0 0,-0.15 0.15001,0 0.15,-0.14999 0.14998,-0.14998 0.15,0 0.15,0 0.15,0 0.15,0 0.15,-0.14999 5.24998,0 0.15,0.14999 0.15,0 0.15,0 0.15,0 0.15,0 0.15,0.14998 0.15,0.14999 0.15,0 0,0.15 0.15,0 0,0.14999 0.15,0 0,0.14999 0.15,0.15 0.14999,0.14998 0,0.14999 0,0.15 0,0.14999 0,0.14999 0.14999,0.15 0,2.54985 2.25,0 0.14999,0.14998 0.15,0 0.15,0 0.15,0 0.15,0 0.15,0.15 0.15,0.14999 0.15,0 0,0.14999 0.15,0 0,0.15 0.15,0 0,0.14999 0.15,0.14998 0.15,0.15 0,0.14999 0,0.14999 0,0.14999 0,0.15 0.15,0.14998 0,5.54969 -0.15,0.14999 0,0.14999 0,0.15 0,0.14998 0,0.14999 -0.15,0.15 -0.15,0.14999 0,0.14999 -0.15,0 0,0.15 -0.15,0 0,0.14998 -0.15,0 -0.15,0.14999 -0.15,0.15 -0.15,0 -0.15,0 -0.15,0 -0.15,0 -0.14999,0.14999 -2.25,0 0,2.39986 -0.14999,0.14999 0,0.15 0,0.14999 0,0.14998 0,0.15 -0.14999,0.14999 -0.15,0.14999 0,0.14999 -0.15,0 0,0.15 -0.15,0 0,0.14998 -0.15,0 -0.15,0.14999 -0.15,0.15 -0.15,0 -0.15,0 -0.15,0 -0.15,0 -0.15,0 -5.24998,0 -0.15,0 -0.15,0 -0.15,0 -0.15,0 -0.15,0 -0.14998,-0.15 -0.15,-0.14999 -0.15001,0 0,-0.14998 -0.14999,0 0,-0.15 -0.15001,0 0,-0.14999 -0.14999,-0.14999 -0.15,-0.14999 0,-0.15 0,-0.14998 0,-0.14999 0,-0.15 0,-0.14999 0,-2.39986 -2.54999,0 -0.15,-0.14999 -0.15,0 -0.15,0 -0.15,0 -0.15,0 -0.15,-0.15 -0.15,-0.14999 -0.15,0 0,-0.14998 -0.15,0 0,-0.15 -0.15,0 0,-0.14999 -0.15,-0.14999 -0.14999,-0.15 0,-0.14999 0,-0.14998 0,-0.15 0,-0.14999 0,-0.14999 z m 4.79998,-2.84984 2.39998,0 0.15,0.14999 0.15,0 0.15,0 0.15,0 0.14999,0 0.15,0.14999 0.15,0.15 0.15,0 0,0.14999 0.15,0 0,0.14998 0.15,0 0,0.15 0.15,0 0,-0.15 0.15,0 0,-0.14998 0.15,0 0,-0.14999 0.15,0 0.15,-0.15 0.15,-0.14999 0.15,0 0.15,0 0.15,0 0.15,0 0.15,-0.14999 2.39999,0 -2.39999,0 -0.15,0 -0.15,0 -0.15,0 -0.15,0 -0.15,0 -0.15,-0.15 -0.15,-0.14998 -0.15,0 0,-0.14999 -0.15,0 0,-0.14999 -0.15,0 0,-0.15 -0.15,0 0,0.15 -0.15,0 0,0.14999 -0.15,0 0,0.14999 -0.15,0 -0.15,0.14998 -0.15,0.15 -0.14999,0 -0.15,0 -0.15,0 -0.15,0 -0.15,0 -2.39998,0 z"
       id="path3196"
       style="fill:#ffffff;fill-opacity:1;fill-rule:evenodd;stroke:none" />
    <path
       d="m 334.73495,380.49244 4.19998,0 0,-5.54969 -4.19998,0 0,-4.49973 -5.24998,0 0,4.49973 -4.34997,0 0,5.54969 4.34997,0 0,4.34975 5.24998,0 0,-4.34975 z m 3.14998,-4.64974 0,3.74979 -4.19997,0 0,4.34975 -3.14999,0 0,-4.34975 -4.34999,0 0,-3.74979 4.34999,0 0,-4.49973 3.14999,0 0,4.49973 4.19997,0 z"
       id="path3198"
       style="fill:#003893;fill-opacity:1;fill-rule:evenodd;stroke:none" />
  </g>
</svg>
