<?xml version="1.0" encoding="UTF-8" standalone="no"?>
<!-- Created with Inkscape (http://www.inkscape.org/) -->

<svg
   xmlns:dc="http://purl.org/dc/elements/1.1/"
   xmlns:cc="http://creativecommons.org/ns#"
   xmlns:rdf="http://www.w3.org/1999/02/22-rdf-syntax-ns#"
   xmlns:svg="http://www.w3.org/2000/svg"
   xmlns="http://www.w3.org/2000/svg"
   version="1.1"
   width="13.49994"
   height="13.49923"
   id="svg7011">
  <defs
     id="defs7013" />
  <metadata
     id="metadata7016">
    <rdf:RDF>
      <cc:Work
         rdf:about="">
        <dc:format>image/svg+xml</dc:format>
        <dc:type
           rdf:resource="http://purl.org/dc/dcmitype/StillImage" />
        <dc:title></dc:title>
      </cc:Work>
    </rdf:RDF>
  </metadata>
  <g
     transform="translate(-333.23479,-388.05314)"
     id="layer1">
    <path
       d="m 333.23479,394.80275 0,-0.15 0,-0.14998 0.15,-0.14998 0.15,-0.74996 0.15,-0.89995 0,-0.14999 0,-0.15 0.15,-0.14999 0,-0.14998 0.15,-0.14999 0,-0.15 0.15,-0.14999 0.29999,-0.44997 0.45,-0.74997 0.15,-0.14999 0,-0.14998 0.15,-0.15 0.15,-0.14999 0.15,0 0.6,-0.44998 0.15,-0.14998 0.74998,-0.44998 0.15,0 0.15,-0.14999 0.15,0 0.15001,-0.15 0.14999,0 0.15,0 0.75,-0.14998 0.89999,-0.14999 0.15,-0.15 0.15,0 0.15,0 0.15,0 0.15,0 0.15,0.15 1.49999,0.29997 0.15,0 0.15,0 0.15,0.15 0.15,0 0.15,0.14999 0.15,0 0.75,0.44998 0.15,0.14998 0.6,0.44998 0.15,0 0.14999,0.14999 0.15,0.15 0,0.14998 0.6,0.74997 0.45,0.59996 0.15,0.14999 0,0.15 0.15,0.14999 0,0.14998 0.15,0.14999 0,0.15 0,0.14999 0.15,0.89995 0.15,0.74996 0.15,0.14999 0,0.14998 0,0.15 0,0.14998 0,0.14999 -0.15,0.14998 -0.15,0.89996 -0.15,0.74996 0,0.14999 0,0.14999 -0.15,0.14999 0,0.14999 -0.15,0.15 0,0.14999 -0.45,0.74995 -0.15,0.15 0,0.14998 -0.15,0.14999 -1.19999,1.19994 -0.15,0.14999 -0.15,0 -0.15,0.15 -0.15,0 -0.15,0.14998 -0.15,0 -0.75,0.29998 -0.74999,0.29999 -0.15,0.14998 -0.15,0 -0.15,0 -0.15,0.15001 -0.15,0 -0.15,0 -1.64998,0 -0.15001,0 -0.15,0 -0.15,-0.15001 -0.15,0 -0.15,0 -0.15,-0.14998 -0.75,-0.29999 -0.74998,-0.29998 -0.15,0 -0.15,-0.14998 -0.15,0 -0.15,-0.15 -0.15,0 -0.15,-0.14999 -0.6,-0.59996 -0.15,-0.15 0,-0.14999 -0.45,-0.59996 -0.15,-0.15 -0.44999,-0.74995 0,-0.14999 -0.15,-0.15 0,-0.14999 -0.15,-0.14999 0,-0.14999 0,-0.14999 -0.15,-0.74996 -0.15,-0.89996 -0.15,-0.14998 0,-0.14999 0,-0.14998 z"
       id="path3164"
       style="fill:#ffffff;fill-opacity:1;fill-rule:evenodd;stroke:none" />
    <path
       d="m 344.18474,394.80275 -0.15,-0.74996 -0.15,-0.89995 -0.45,-0.59996 -0.6,-0.74995 -0.6,-0.44999 -0.74999,-0.44997 -1.5,-0.29998 -0.89998,0.14999 -0.75,0.14999 -0.75,0.44997 -0.60001,0.44997 -0.44998,0.74997 -0.45,0.59996 -0.15,0.89995 -0.15,0.74996 0.15,0.89994 0.15,0.74996 0.45,0.74996 0.44998,0.59997 0.6,0.59996 0.75,0.29999 0.75,0.29997 0.89999,0 0.75,0 0.75,-0.29997 0.74999,-0.29999 0.6,-0.59996 0.6,-0.59997 0.45,-0.74996 0.15,-0.74996 0.15,-0.89994 z"
       id="path3166"
       style="fill:#4473dc;fill-opacity:1;fill-rule:evenodd;stroke:none" />
  </g>
</svg>
