<?xml version="1.0" encoding="UTF-8" standalone="no"?>
<!-- Created with Inkscape (http://www.inkscape.org/) -->

<svg
   xmlns:dc="http://purl.org/dc/elements/1.1/"
   xmlns:cc="http://creativecommons.org/ns#"
   xmlns:rdf="http://www.w3.org/1999/02/22-rdf-syntax-ns#"
   xmlns:svg="http://www.w3.org/2000/svg"
   xmlns="http://www.w3.org/2000/svg"
   version="1.1"
   width="11.84994"
   height="11.84931"
   id="svg7011">
  <defs
     id="defs7013" />
  <metadata
     id="metadata7016">
    <rdf:RDF>
      <cc:Work
         rdf:about="">
        <dc:format>image/svg+xml</dc:format>
        <dc:type
           rdf:resource="http://purl.org/dc/dcmitype/StillImage" />
        <dc:title></dc:title>
      </cc:Work>
    </rdf:RDF>
  </metadata>
  <g
     transform="translate(-326.04874,-373.65494)"
     id="layer1">
    <path
       d="m 326.04874,379.65459 0,-0.15 0.15,-1.04992 0,-0.14999 0.14999,-0.74997 0,-0.14998 0.15,-0.14999 0.45,-0.89995 0,-0.15 0.6,-0.74995 0.15,0 0,-0.15 0.15,0 0,-0.14999 0.75,-0.59996 0.15,0 0.74998,-0.44997 0.15,-0.14999 0.15,0 0.15,0 0.90001,-0.15 1.04998,-0.14999 0.15,0 0.15,0 0.9,0.14999 0.89999,0.15 0.15,0 0.15,0 0.15,0.14999 0.75,0.44997 0.15,0 0.75,0.59996 0,0.14999 0.15,0 0,0.15 0.15,0 0.59999,0.74995 0,0.15 0.45,0.89995 0.15,0.14999 0.3,0.74995 0,0.15 0,0.14999 0,0.14998 0,1.9499 0,0.14998 0,0.14998 0,0.14999 -0.3,0.89995 -0.15,0.15 -0.45,0.74995 0,0.15 -0.59999,0.74995 -0.15,0 0,0.14999 -0.15,0 0,0.15 -0.75,0.59996 -0.15,0 -0.75,0.44998 -0.15,0.14999 -0.15,0 -0.15,0 -0.89999,0.14999 -0.9,0.14999 -0.15,0 -0.15,0 -1.04998,-0.14999 -0.90001,-0.14999 -0.15,0 -0.15,0 -0.15,-0.14999 -0.74998,-0.44998 -0.15,0 -0.75,-0.59996 0,-0.15 -0.15,0 0,-0.14999 -0.15,0 -0.6,-0.74995 0,-0.15 -0.45,-0.74995 -0.15,-0.15 0,-0.14998 0,-0.14998 -0.29999,-1.7999 0,-0.14999 z"
       id="path3180"
       style="fill:#ffffff;fill-opacity:1;fill-rule:evenodd;stroke:none" />
    <path
       d="m 336.69868,379.65459 0,-1.04995 -0.29999,-0.74995 -0.45,-0.89995 -0.6,-0.74996 -0.75,-0.59996 -0.74999,-0.44998 -0.9,-0.14998 -0.9,-0.14998 -1.04999,0.14998 -0.89999,0.14998 -0.75,0.44998 -0.74999,0.59996 -0.6,0.74996 -0.45,0.89995 -0.15,0.74995 -0.15,1.04995 0.15,0.89996 0.15,0.89993 0.45,0.74996 0.6,0.74996 0.74999,0.59997 0.75,0.44997 0.89999,0.14999 1.04999,0.14999 0.9,-0.14999 0.9,-0.14999 0.74999,-0.44997 0.75,-0.59997 0.6,-0.74996 0.45,-0.74996 0.29999,-0.89993 0,-0.89996 z"
       id="path3182"
       style="fill:#fa3921;fill-opacity:1;fill-rule:evenodd;stroke:none" />
  </g>
</svg>
