<?xml version="1.0" encoding="UTF-8" standalone="no"?>
<!-- Created with Inkscape (http://www.inkscape.org/) -->

<svg
   xmlns:dc="http://purl.org/dc/elements/1.1/"
   xmlns:cc="http://creativecommons.org/ns#"
   xmlns:rdf="http://www.w3.org/1999/02/22-rdf-syntax-ns#"
   xmlns:svg="http://www.w3.org/2000/svg"
   xmlns="http://www.w3.org/2000/svg"
   version="1.1"
   width="19.349899"
   height="19.348909"
   id="svg7011">
  <defs
     id="defs7013" />
  <metadata
     id="metadata7016">
    <rdf:RDF>
      <cc:Work
         rdf:about="">
        <dc:format>image/svg+xml</dc:format>
        <dc:type
           rdf:resource="http://purl.org/dc/dcmitype/StillImage" />
        <dc:title></dc:title>
      </cc:Work>
    </rdf:RDF>
  </metadata>
  <g
     transform="translate(-321.78931,-404.02877)"
     id="layer1">
    <path
       d="m 321.78931,420.82781 0,-14.24918 0,-0.15 0,-0.14999 0.15,-0.14998 0,-0.15 0,-0.14999 0.15,-0.14999 0,-0.15 0.15,-0.14999 0,-0.14998 0.15,-0.15 0,-0.14999 0.15,-0.14999 0.15,-0.15 0.15,0 0.14999,-0.14999 0.15,0 0.15,-0.14998 0.15,0 0.15,-0.15 0.15,0 0.15,0 0.15,-0.14999 0.15,0 0.15,0 14.24992,0 0.15,0 0.15,0 0.15,0.14999 0.15,0 0.15,0 0.15,0.15 0.15,0 0.15,0.14998 0.15,0 0.15,0.14999 0.15,0 0.15,0.15 0.15,0.14999 0,0.14999 0.15,0.15 0,0.14998 0.15,0.14999 0,0.15 0.15,0.14999 0,0.14999 0,0.15 0.14999,0.14998 0,0.14999 0,0.15 0,14.24918 0,0.15 0,0.15 -0.14999,0.14998 0,0.15 0,0.14999 -0.15,0.14999 0,0.15 -0.15,0.14999 0,0.14998 -0.15,0.15 0,0.14999 -0.15,0.14999 -0.15,0.15 -0.15,0 -0.15,0.14999 -0.15,0 -0.15,0.14998 -0.15,0 -0.15,0.15 -0.15,0 -0.15,0 -0.15,0.14999 -0.15,0 -0.15,0 -14.24992,0 -0.15,0 -0.15,0 -0.15,-0.14999 -0.15,0 -0.15,0 -0.15,-0.15 -0.15,0 -0.15,-0.14998 -0.15,0 -0.14999,-0.14999 -0.15,0 -0.15,-0.15 -0.15,-0.14999 0,-0.14999 -0.15,-0.15 0,-0.14998 -0.15,-0.14999 0,-0.15 -0.15,-0.14999 0,-0.14999 0,-0.15 -0.15,-0.14998 0,-0.15 0,-0.15 z"
       id="path3054"
       style="fill:#ffffff;fill-opacity:1;fill-rule:evenodd;stroke:none" />
    <path
       d="m 338.58922,420.82781 0,-14.24918 -14.24992,0 0,14.24918 14.24992,0 z"
       id="path3056"
       style="fill:#ffffff;fill-opacity:1;fill-rule:evenodd;stroke:none" />
    <path
       d="m 324.3393,420.82781 14.24992,0 0,-14.24918 -14.24992,0 0,14.24918 z m 0.6,-13.6492 12.59994,0 -12.59994,12.74927 0,-12.74927 z"
       id="path3058"
       style="fill:#4473dc;fill-opacity:1;fill-rule:evenodd;stroke:none" />
  </g>
</svg>
