<?xml version="1.0" encoding="UTF-8" standalone="no"?>
<!-- Created with Inkscape (http://www.inkscape.org/) -->

<svg
   xmlns:dc="http://purl.org/dc/elements/1.1/"
   xmlns:cc="http://creativecommons.org/ns#"
   xmlns:rdf="http://www.w3.org/1999/02/22-rdf-syntax-ns#"
   xmlns:svg="http://www.w3.org/2000/svg"
   xmlns="http://www.w3.org/2000/svg"
   version="1.1"
   width="19.349899"
   height="19.348909"
   id="svg7011">
  <defs
     id="defs7013" />
  <metadata
     id="metadata7016">
    <rdf:RDF>
      <cc:Work
         rdf:about="">
        <dc:format>image/svg+xml</dc:format>
        <dc:type
           rdf:resource="http://purl.org/dc/dcmitype/StillImage" />
        <dc:title></dc:title>
      </cc:Work>
    </rdf:RDF>
  </metadata>
  <g
     transform="translate(-328.36436,-401.56037)"
     id="layer1">
    <path
       d="m 328.36436,411.30983 0,-0.15 0,-0.15 0.15,-1.49991 0.15,-0.15 0,-0.14999 0.3,-1.34992 0,-0.14999 0.15,-0.14999 0,-0.15 0.15,-0.14998 0,-0.14999 0.74999,-1.19994 0.15,-0.14999 0,-0.14998 0.9,-1.04996 0.15,-0.14998 0.15,-0.14999 1.04999,-0.89995 0.14999,0 0.15,-0.14999 0.15,0 0.15,-0.15 1.20001,-0.59996 0.14999,0 0.15,-0.14999 1.34999,-0.44997 0.15,0 0.15,0 0.15,-0.15 1.34999,-0.14999 0.15,0 0.15,0 0.15,0 0.15,0 1.5,0.14999 0.14999,0.15 0.15,0 0.15,0 1.35,0.44997 0.15,0.14999 0.15,0 1.19998,0.59996 0.15,0.15 0.15001,0 0.14999,0.14999 0.15001,0 1.04999,0.89995 0.15001,0.14999 0.14999,0.14998 0.89999,1.04996 0,0.14998 0.15,0.14999 0.75,1.19994 0,0.14999 0.15,0.14998 0,0.15 0.15,0.14999 0,0.14999 0.3,1.34992 0,0.14999 0.15,0.15 0.14999,1.49991 0,0.15 0,0.15 0,0.14999 0,0.14999 -0.14999,1.34992 -0.15,0.14999 0,0.15 -0.3,1.34993 0,0.14998 -0.15,0.14999 0,0.14999 -0.15,0.15 0,0.14998 -0.75,1.19994 -0.15,0.14999 0,0.14999 -0.89999,1.04994 -0.14999,0.15 -0.15001,0.14998 -1.04999,0.89995 -0.15001,0 -0.14999,0.14999 -1.19999,0.74996 -0.15,0 -0.15,0.14999 -0.15,0 -0.15,0.14999 -0.15,0 -1.35,0.29998 -0.15,0 -0.14999,0.14999 -1.5,0.15 -0.15,0 -0.15,0 -0.15,0 -0.15,0 -1.34999,-0.15 -0.15,-0.14999 -0.15,0 -1.34998,-0.29998 -0.15001,0 -0.15,-0.14999 -0.15,0 -0.15,-0.14999 -0.14999,0 -1.20001,-0.74996 -0.15,-0.14999 -0.14999,0 -1.04999,-0.89995 -0.15,-0.14998 -0.15,-0.15 -0.9,-1.04994 0,-0.14999 -0.15,-0.14999 -0.74999,-1.19994 0,-0.14998 -0.15,-0.15 0,-0.14999 -0.15,-0.14999 0,-0.14998 -0.3,-1.34993 0,-0.15 -0.15,-0.14999 -0.15,-1.34992 0,-0.14999 0,-0.14999 z"
       id="path3064"
       style="fill:#ffffff;fill-opacity:1;fill-rule:evenodd;stroke:none" />
    <path
       d="m 344.86429,411.15983 -0.15001,-1.34992 -0.29999,-1.34991 -0.60001,-1.04996 -0.89999,-1.19992 -1.04999,-0.74996 -1.2,-0.74995 -1.34999,-0.29999 -1.35,-0.14999 -1.34999,0.14999 -1.35,0.29999 -1.19999,0.74995 -1.05,0.89995 -0.89998,1.04993 -0.6,1.19994 -0.3,1.19993 -0.15,1.34992 0.15,1.49992 0.3,1.19993 0.74998,1.19993 0.75,1.04995 1.05,0.89995 1.19999,0.59996 1.35,0.29997 1.34999,0.15001 1.35,-0.15001 1.34999,-0.29997 1.05,-0.59996 1.19998,-0.89995 0.9,-1.04995 0.60001,-1.19993 0.29999,-1.34992 0.15001,-1.34993 z"
       id="path3066"
       style="fill:#ffffff;fill-opacity:1;fill-rule:evenodd;stroke:none" />
    <path
       d="m 345.16427,411.30983 -0.14999,-1.49992 -0.3,-1.34991 -0.75,-1.19994 -0.9,-1.04995 -1.04998,-0.89995 -1.2,-0.59996 -1.34999,-0.44997 -1.5,-0.15 -1.34999,0.15 -1.35,0.44997 -1.19999,0.59996 -1.05,0.89995 -0.89998,1.04995 -0.75,1.19994 -0.3,1.34991 -0.15,1.49992 0.15,1.34992 0.3,1.34991 0.75,1.19995 0.89998,1.04994 1.05,0.89995 1.19999,0.74994 1.35,0.29999 1.34999,0.14999 1.5,-0.14999 1.34999,-0.29999 1.2,-0.74994 1.04998,-0.89995 0.9,-1.04994 0.75,-1.19995 0.3,-1.34991 0.14999,-1.34992 z m -0.59999,0 -0.14999,1.19991 -0.3,1.19995 -0.60001,1.19992 -0.89999,0.89995 -0.89999,0.89996 -1.2,0.59995 -1.19999,0.3 -1.35,0.14999 -1.19999,-0.14999 -1.2,-0.3 -1.19999,-0.59995 -0.89999,-0.89996 -0.90001,-0.89995 -0.59998,-1.19992 -0.3,-1.19995 -0.15,-1.19991 0.15,-1.34992 0.3,-1.19995 0.59998,-1.04994 0.90001,-1.04994 0.89999,-0.89995 1.19999,-0.59996 1.2,-0.29999 1.19999,-0.14998 1.35,0.14998 1.19999,0.29999 1.2,0.59996 0.89999,0.89995 0.89999,0.89995 0.60001,1.19993 0.3,1.19993 0.14999,1.34993 z m -9.14996,-4.64974 0,8.99948 3.29999,0 0.9,0 0.74999,-0.15 0.45,-0.14999 0.45,-0.29998 0.45,-0.74995 0.15,-1.19994 0,-0.59997 -0.45,-0.74994 -0.45,-0.59998 -0.6,-0.29998 0.45,-0.29998 0.45,-0.44998 0.15,-0.59996 0.15,-0.59995 -0.15,-0.59998 -0.3,-0.59996 -0.3,-0.44997 -0.6,-0.29999 -0.74999,-0.14999 -0.75,-0.14999 -3.29999,0 z m 2.24999,3.74978 -1.19999,0 0,-2.84982 1.79999,0 0.75,0 0.6,0.14998 0.59999,0.44998 0.3,0.89995 -0.3,0.74995 -0.44999,0.44996 -0.75,0.15 0.15,0 -0.3,0 -0.45,0 -0.75,0 z m 1.05,4.34975 -2.24999,0 0,-3.4498 2.09999,0 0.75,0 0.59999,0.14999 0.45,0.29999 0.45,0.59996 0,0.74995 -0.15,0.74996 -0.3,0.59996 -0.74999,0.29999 -0.3,0 -0.6,0 z"
       id="path3068"
       style="fill:#003893;fill-opacity:1;fill-rule:evenodd;stroke:none" />
  </g>
</svg>
