<?xml version="1.0" encoding="UTF-8" standalone="no"?>
<!-- Created with Inkscape (http://www.inkscape.org/) -->

<svg
   xmlns:dc="http://purl.org/dc/elements/1.1/"
   xmlns:cc="http://creativecommons.org/ns#"
   xmlns:rdf="http://www.w3.org/1999/02/22-rdf-syntax-ns#"
   xmlns:svg="http://www.w3.org/2000/svg"
   xmlns="http://www.w3.org/2000/svg"
   version="1.1"
   width="19.349899"
   height="19.348869"
   id="svg7011">
  <defs
     id="defs7013" />
  <metadata
     id="metadata7016">
    <rdf:RDF>
      <cc:Work
         rdf:about="">
        <dc:format>image/svg+xml</dc:format>
        <dc:type
           rdf:resource="http://purl.org/dc/dcmitype/StillImage" />
        <dc:title></dc:title>
      </cc:Work>
    </rdf:RDF>
  </metadata>
  <g
     transform="translate(-336.69309,-386.33458)"
     id="layer1">
    <path
       d="m 336.69309,403.1336 0,-14.24918 0,-0.14999 0,-0.15 0.15,-0.14999 0,-0.14997 0,-0.15 0.15,-0.14999 0,-0.14999 0.15,-0.15 0,-0.14999 0.15,-0.14998 0,-0.14999 0.15,-0.15 0.15,-0.14999 0.15,0 0.14999,-0.14999 0.15,0 0.15,-0.15 0.15,0 0.15,-0.14998 0.15,0 0.15,0 0.15,-0.14999 0.15,0 0.15,0 14.24992,0 0.15,0 0.15,0 0.15,0.14999 0.15,0 0.15,0 0.15,0.14998 0.15,0 0.15,0.15 0.15,0 0.15,0.14999 0.15,0 0.15,0.14999 0.15,0.15 0,0.14999 0.15,0.14998 0,0.14999 0.15,0.15 0,0.14999 0.15,0.14999 0,0.15 0,0.14997 0.14999,0.14999 0,0.15 0,0.14999 0,14.24918 0,0.14999 0,0.15 -0.14999,0.14999 0,0.14999 0,0.15 -0.15,0.14998 0,0.14999 -0.15,0.15 0,0.14999 -0.15,0.14999 0,0.14998 -0.15,0.15 -0.15,0.14999 -0.15,0 -0.15,0.14999 -0.15,0 -0.15,0.15 -0.15,0 -0.15,0.14999 -0.15,0 -0.15,0 -0.15,0.14998 -0.15,0 -0.15,0 -14.24992,0 -0.15,0 -0.15,0 -0.15,-0.14998 -0.15,0 -0.15,0 -0.15,-0.14999 -0.15,0 -0.15,-0.15 -0.15,0 -0.14999,-0.14999 -0.15,0 -0.15,-0.14999 -0.15,-0.15 0,-0.14998 -0.15,-0.14999 0,-0.14999 -0.15,-0.15 0,-0.14999 -0.15,-0.14998 0,-0.15 0,-0.14999 -0.15,-0.14999 0,-0.15 0,-0.14999 z"
       id="path3134"
       style="fill:#ffffff;fill-opacity:1;fill-rule:evenodd;stroke:none" />
    <path
       d="m 353.493,403.1336 0,-14.24918 -14.24992,0 0,14.24918 14.24992,0 z"
       id="path3136"
       style="fill:#ffffff;fill-opacity:1;fill-rule:evenodd;stroke:none" />
    <path
       d="m 353.493,403.1336 0,-14.24918 -14.24992,0 0,14.24918 14.24992,0 z m -1.34999,-0.74996 -12.14993,0 0,-11.84932 2.84998,5.09971 2.24999,-3.29981 7.04996,10.04942 z m 0.6,-0.44997 -7.64996,-11.24935 -2.24999,3.5998 -2.69998,-4.64974 12.59993,0 0,12.29929 z"
       id="path3138"
       style="fill:#003893;fill-opacity:1;fill-rule:evenodd;stroke:none" />
  </g>
</svg>
