<?xml version="1.0" encoding="UTF-8" standalone="no"?>
<!-- Created with Inkscape (http://www.inkscape.org/) -->

<svg
   xmlns:dc="http://purl.org/dc/elements/1.1/"
   xmlns:cc="http://creativecommons.org/ns#"
   xmlns:rdf="http://www.w3.org/1999/02/22-rdf-syntax-ns#"
   xmlns:svg="http://www.w3.org/2000/svg"
   xmlns="http://www.w3.org/2000/svg"
   xmlns:sodipodi="http://sodipodi.sourceforge.net/DTD/sodipodi-0.dtd"
   xmlns:inkscape="http://www.inkscape.org/namespaces/inkscape"
   width="22.19989"
   height="22.19874"
   id="svg7011"
   version="1.1"
   inkscape:version="0.48.3.1 r9886"
   sodipodi:docname="MediVac Site.svg">
  <defs
     id="defs7013" />
  <sodipodi:namedview
     id="base"
     pagecolor="#ff7cff"
     bordercolor="#666666"
     borderopacity="1.0"
     inkscape:pageopacity="1"
     inkscape:pageshadow="2"
     inkscape:zoom="7.9195959"
     inkscape:cx="18.243157"
     inkscape:cy="7.4280914"
     inkscape:document-units="px"
     inkscape:current-layer="layer1"
     showgrid="false"
     inkscape:window-width="968"
     inkscape:window-height="815"
     inkscape:window-x="1731"
     inkscape:window-y="161"
     inkscape:window-maximized="0"
     fit-margin-top="0"
     fit-margin-left="0"
     fit-margin-right="0"
     fit-margin-bottom="0" />
  <metadata
     id="metadata7016">
    <rdf:RDF>
      <cc:Work
         rdf:about="">
        <dc:format>image/svg+xml</dc:format>
        <dc:type
           rdf:resource="http://purl.org/dc/dcmitype/StillImage" />
        <dc:title></dc:title>
      </cc:Work>
    </rdf:RDF>
  </metadata>
  <g
     inkscape:label="Layer 1"
     inkscape:groupmode="layer"
     id="layer1"
     transform="translate(-317.47523,-367.33523)">
    <path
       inkscape:connector-curvature="0"
       id="path3204"
       style="fill:#0070ff;fill-opacity:1;fill-rule:evenodd;stroke:none"
       d="m 339.67512,378.43459 -0.3,-2.24987 -0.6,-2.09988 -1.04999,-1.7999 -1.35,-1.6499 -1.64999,-1.34992 -1.94999,-1.04994 -2.09999,-0.59996 -2.09999,-0.29999 -2.24999,0.29999 -2.09999,0.59996 -1.79999,1.04994 -1.64999,1.34992 -1.34999,1.6499 -1.05,1.7999 -0.6,2.09988 -0.29999,2.24987 0.29999,2.24988 0.6,2.09987 1.05,1.94989 1.34999,1.49993 1.64999,1.49991 1.79999,0.89995 2.09999,0.74995 2.24999,0.15 2.09999,-0.15 2.09999,-0.74995 1.94999,-0.89995 1.64999,-1.49991 1.35,-1.49993 1.04999,-1.94989 0.6,-2.09987 0.3,-2.24988 z" />
    <path
       inkscape:connector-curvature="0"
       id="path3206"
       style="fill:#ffffff;fill-opacity:1;fill-rule:evenodd;stroke:none"
       d="m 336.97513,378.43459 -0.15,-1.6499 -0.45,-1.64991 -0.89999,-1.49991 -1.05,-1.19993 -1.2,-1.04995 -1.49998,-0.74995 -1.49999,-0.59996 -1.8,-0.15 -1.64999,0.15 -1.64999,0.59996 -1.35,0.74995 -1.34999,1.04995 -1.05,1.19993 -0.75,1.49991 -0.45,1.64991 -0.14998,1.6499 0.14998,1.7999 0.45,1.49992 0.75,1.49991 1.05,1.19993 1.34999,1.04993 1.35,0.89995 1.64999,0.44997 1.64999,0.14999 1.8,-0.14999 1.49999,-0.44997 1.49998,-0.89995 1.2,-1.04993 1.05,-1.19993 0.89999,-1.49991 0.45,-1.49992 0.15,-1.7999 z" />
    <path
       inkscape:connector-curvature="0"
       id="path3208"
       style="fill:#ff0000;fill-opacity:1;fill-rule:evenodd;stroke:none"
       d="m 333.82514,376.63469 -3.44997,0 0,-3.59978 -3.59999,0 0,3.59978 -3.59999,0 0,3.5998 3.59999,0 0,3.5998 3.59999,0 0,-3.5998 3.44997,0 0,-3.5998 z" />
  </g>
</svg>
