<?xml version="1.0" encoding="UTF-8" standalone="no"?>
<!-- Created with Inkscape (http://www.inkscape.org/) -->

<svg
   xmlns:dc="http://purl.org/dc/elements/1.1/"
   xmlns:cc="http://creativecommons.org/ns#"
   xmlns:rdf="http://www.w3.org/1999/02/22-rdf-syntax-ns#"
   xmlns:svg="http://www.w3.org/2000/svg"
   xmlns="http://www.w3.org/2000/svg"
   version="1.1"
   width="19.499901"
   height="19.498871"
   id="svg7011">
  <defs
     id="defs7013" />
  <metadata
     id="metadata7016">
    <rdf:RDF>
      <cc:Work
         rdf:about="">
        <dc:format>image/svg+xml</dc:format>
        <dc:type
           rdf:resource="http://purl.org/dc/dcmitype/StillImage" />
        <dc:title></dc:title>
      </cc:Work>
    </rdf:RDF>
  </metadata>
  <g
     transform="translate(-324.92953,-395.11999)"
     id="layer1">
    <path
       d="m 324.92953,404.86941 0,-0.14997 0,-0.15001 0.15,-1.3499 0.15,-0.15 0,-0.14999 0.3,-1.34992 0,-0.14999 0.15,-0.15 0,-0.14999 0,-0.14999 0.74999,-1.34992 0.15,0 0,-0.14999 0.15,-0.15 0,-0.14999 0.9,-1.04994 0.15,-0.14998 0.15,-0.15 1.04999,-0.89995 0.14999,0 0.15001,-0.14999 0.15,0 0.14999,-0.14999 1.20001,-0.59997 0.15,0 0.14999,-0.14999 1.34999,-0.44998 0.15,0 0.15,0 0.15,-0.14998 1.49999,-0.14999 0.15,0 0.15,0 0.15,0 0.15,0 1.49999,0.14999 0.15,0.14998 0.15,0 0.15,0 1.35,0.44998 0.15,0.14999 0.15,0 1.19998,0.59997 0.15001,0.14999 0.14999,0 0.15,0.14999 0.15001,0 1.05,0.89995 0.14999,0.15 0.14999,0.14998 0.9,1.04994 0,0.14999 0.15,0.15 0.75,1.19992 0,0.15 0.15,0.14999 0,0.14999 0.15,0.14999 0,0.15 0.3,1.34992 0,0.14999 0.14999,0.14999 0.15,1.4999 0,0.15001 0,0.14997 0,0.14999 0,0.15 -0.15,1.49991 -0.14999,0.14999 0,0.14999 -0.3,1.34992 0,0.15 -0.15,0.14999 0,0.14999 -0.15,0.15 0,0.14999 -0.75,1.19992 -0.15,0.15 0,0.14999 -0.9,1.04994 -0.14999,0.15 -0.14999,0.14999 -1.05,0.89994 -0.15001,0 -0.15,0.14999 -0.14999,0 0,0.14999 -1.34999,0.74996 -0.15,0 -0.15,0 -0.15,0.14999 -0.15,0 -1.2,0.29999 -0.15,0 -0.15,0.14998 -1.49999,0.15 -0.15,0 -0.15,0 -0.15,0 -0.15,0 -1.49999,-0.15 -0.15,-0.14998 -0.15,0 -1.34998,-0.29999 -0.15001,0 -0.14999,-0.14999 -0.15001,0 -0.15,-0.14999 -0.14999,0 -1.20001,-0.74996 -0.15,-0.14999 -0.14999,0 -1.04999,-0.89994 -0.15,-0.14999 -0.15,-0.15 -0.9,-1.04994 0,-0.14999 -0.15,-0.15 -0.74999,-1.19992 0,-0.14999 -0.15,-0.15 0,-0.14999 -0.15,-0.14999 0,-0.15 -0.3,-1.34992 0,-0.14999 -0.15,-0.14999 -0.15,-1.49991 0,-0.15 0,-0.14999 z"
       id="path3114"
       style="fill:#ffffff;fill-opacity:1;fill-rule:evenodd;stroke:none" />
    <path
       d="m 341.42946,404.86941 -0.15001,-1.34992 -0.3,-1.34993 -0.59999,-1.04993 -0.90001,-1.19993 -1.04998,-0.74996 -1.2,-0.74996 -1.34999,-0.29998 -1.35,-0.14999 -1.34999,0.14999 -1.35,0.29998 -1.19999,0.74996 -1.05,0.89995 -0.89998,1.04994 -0.6,1.19993 -0.3,1.19993 -0.15,1.34992 0.15,1.49992 0.3,1.19993 0.74998,1.19993 0.75,1.04994 1.05,0.89995 1.19999,0.59997 1.35,0.29998 1.34999,0.15 1.35,-0.15 1.34999,-0.29998 1.05,-0.59997 1.19999,-0.89995 0.9,-1.04994 0.6,-1.19993 0.29999,-1.34992 0.15001,-1.34993 z"
       id="path3116"
       style="fill:#ffffff;fill-opacity:1;fill-rule:evenodd;stroke:none" />
    <path
       d="m 341.87944,404.86941 -0.15,1.49992 -0.29998,1.34992 -0.75,1.19994 -0.90001,1.04994 -1.04998,0.89995 -1.35,0.74995 -1.19999,0.29999 -1.5,0.14998 -1.49999,-0.14998 -1.35,-0.29999 -1.19999,-0.74995 -1.05,-0.89995 -0.89998,-1.04994 -0.75,-1.19994 -0.3,-1.34992 -0.15,-1.49992 0.15,-1.34992 0.3,-1.34993 0.75,-1.34991 0.89998,-1.04995 1.05,-0.89995 1.19999,-0.59996 1.35,-0.44998 1.49999,-0.14998 1.5,0.14998 1.34999,0.44998 1.2,0.59996 1.04998,0.89995 0.90001,1.04995 0.75,1.19993 0.29998,1.34992 0.15,1.49991 z m -0.74998,0 -0.15001,-1.34992 -0.29999,-1.19993 -0.60001,-1.04995 -0.75,-0.89993 -1.04998,-0.89995 -1.05,-0.59998 -1.19999,-0.29997 -1.35,-0.15 -1.34999,0.15 -1.2,0.29997 -1.04999,0.59998 -0.89999,0.89995 -0.9,0.89993 -0.59999,1.19994 -0.3,1.19994 -0.15,1.19992 0.15,1.34993 0.3,1.19992 0.59999,1.04995 0.9,1.04994 0.89999,0.74995 1.04999,0.59998 1.2,0.29997 1.34999,0.15 1.35,-0.15 1.19999,-0.29997 1.05,-0.59998 0.89999,-0.74995 0.89999,-1.04994 0.60001,-1.04995 0.29999,-1.19992 0.15001,-1.34993 z m -9.44997,4.04978 0,-7.94955 3.29999,0 0.75,0 0.6,0.14999 0.29999,0.14998 0.3,0.15 0.15,0.14999 0,0.14999 0.3,0.74996 0,0.59996 0,0.74997 -0.45,0.74995 -0.59999,0.29998 -1.05,0.29999 0.3,0.14999 0.45,0.29999 0.15,0.44997 0.44999,0.74995 1.5,2.09989 -0.9,0 -1.19999,-1.64991 -0.3,-0.44998 -0.45,-0.59996 -0.15,-0.29999 -0.3,-0.44997 -0.45,-0.14999 -0.74999,-0.14999 -1.2,0 0,3.74979 -0.75,0 z m 0.75,-4.49975 2.39999,0 1.05,-0.14999 0.59999,-0.59995 0.3,-0.74996 -0.15,-0.44998 -0.29999,-0.44997 -0.6,-0.14999 -0.75,-0.15 -2.54999,0 0,2.69985 z"
       id="path3118"
       style="fill:#003893;fill-opacity:1;fill-rule:evenodd;stroke:none" />
  </g>
</svg>
