<?xml version="1.0" encoding="UTF-8" standalone="no"?>
<!-- Created with Inkscape (http://www.inkscape.org/) -->

<svg
   xmlns:dc="http://purl.org/dc/elements/1.1/"
   xmlns:cc="http://creativecommons.org/ns#"
   xmlns:rdf="http://www.w3.org/1999/02/22-rdf-syntax-ns#"
   xmlns:svg="http://www.w3.org/2000/svg"
   xmlns="http://www.w3.org/2000/svg"
   version="1.1"
   width="19.9499"
   height="16.19906"
   id="svg7011">
  <defs
     id="defs7013" />
  <metadata
     id="metadata7016">
    <rdf:RDF>
      <cc:Work
         rdf:about="">
        <dc:format>image/svg+xml</dc:format>
        <dc:type
           rdf:resource="http://purl.org/dc/dcmitype/StillImage" />
        <dc:title></dc:title>
      </cc:Work>
    </rdf:RDF>
  </metadata>
  <g
     transform="translate(-330.97354,-366.54558)"
     id="layer1">
    <path
       d="m 330.97354,376.14503 0,-0.89996 0,-0.14998 0,-0.15 0.15,-0.14998 0.15,-0.89995 0,-0.14999 0,-0.14999 0.15,-0.15 0,-0.14999 0.74999,-1.49991 0.15,-0.14999 0,-0.15 0.15,-0.14998 0,-0.14999 0.15,-0.15 0.15,0 1.35,-1.19993 0,-0.15 0.15,0 0.15,-0.14999 0.74998,-0.44997 0.15001,0 0.15,-0.14999 0.14999,0 0.15001,-0.14999 0.14999,0 0.15001,0 0.9,-0.15 0.14999,-0.14998 0.14999,0 0.15,0 0.9,0 0.15,0 0.15,0 0.15,0.14998 0.75,0.15 0.15,0 0.14999,0 0.15,0.14999 0.15,0 1.35,0.59996 0.15,0.14999 0.15,0 0.15,0.15 0.15,-0.15 0,-0.14999 -0.15,-0.14998 0,-0.15 0,-0.14999 0,-0.14999 0,-0.14999 0.15,-0.15 0,-0.14998 0,-0.14999 0.15,-0.15 0,-0.14999 0.14999,-0.14999 0,-0.14999 0.15,-0.14999 0,-0.14999 0.15,-0.15 0.15,-0.14999 0.15,0 0.15,-0.14999 0.15,0 0.15,-0.14999 0.15,0 0.15,-0.14999 0.15,0 0.15,0 0.15,-0.14999 0.15,0 0.15,0 0.15,0 3.89997,0.29998 0.15,0 0.15,0.14999 0.15,0 0.15,0 0.15,0.14999 0.15,0 0.15,0.14999 0.15,0 0.15,0.15 0.15,0 0.14999,0.14999 0.15,0.14999 0,0.14999 0.15,0.14999 0,0.14999 0.15,0.15 0,0.14999 0.15,0.14998 0,0.15 0,0.14999 0.15,0.14999 0,0.14999 0,0.15 0,0.14998 0,0.14999 -0.15,0.15 0,0.14999 0,0.14999 -0.15,0.15 0,0.14998 -1.79999,3.5998 -0.15,0.14999 0,0.14999 -0.15,0.15 0,0.14999 -0.15,0.14999 -0.15,0.14998 -0.15,0 -0.15,0.15 -0.15,0 -0.15,0.14998 -0.14998,0 -0.15001,0.14998 -0.14999,0 -0.15,0 -0.15001,0.15001 -0.14999,0 -0.15001,0 -0.14999,0 -0.15,0 -0.15001,-0.15001 -0.14999,0 -0.15001,0 -0.14999,-0.14998 -0.15,0 -0.15001,-0.14998 -0.14999,0 -0.15001,-0.15 0,0.15 0,0.14998 0,0.14998 -0.14998,1.49993 -0.15,0.14999 0,0.14999 0,0.14999 -0.3,1.04994 -0.15,0.14999 0,0.14999 -0.15,0.15 0,0.14998 -0.45,0.74997 -0.15,0.14998 0,0.14999 -0.15,0.15 -0.15,0 -1.34999,1.19993 0,0.14998 -0.15,0 -0.15,0.15001 -0.15,0 -0.15,0.14998 -0.15,0 -0.75,0.29999 -0.15,0.14999 -0.89999,0.29999 -0.15,0 -0.15,0 -0.15,0.14998 -0.15,0 -0.15,0 -0.9,0 -0.15,0 -0.15,0 -0.15,-0.14998 -0.89999,-0.15001 -0.14999,0 -0.15001,0 -0.15,-0.14998 -0.14999,0 -0.15001,0 -1.64998,-0.89995 0,-0.14999 -0.15,0 -0.15,-0.15 -0.15,0 -0.15,-0.14999 -1.2,-1.19992 -0.15,-0.15 0,-0.14999 -0.14999,-0.14999 0,-0.15 -0.15,-0.14999 0,-0.14998 -0.15,-0.15 -0.3,-0.89995 0,-0.14999 0,-0.14999 -0.15,-0.89995 -0.15,-0.14998 0,-0.15001 0,-0.14998 z m 6.29996,0.44997 0.6,0.29998 0.75,-0.29998 0.3,-0.29998 0.3,-0.44998 0,-0.14999 -0.3,-0.74996 -0.3,-0.44996 -0.45,-0.15 -0.15,0 -0.6,0.15 -0.44998,0.44996 -0.15,0.44998 0,0.29998 0.15,0.44998 0.29998,0.44997 z"
       id="path3188"
       style="fill:#ffffff;fill-opacity:1;fill-rule:evenodd;stroke:none" />
    <path
       d="m 341.62349,376.595 -0.75,1.34993 -1.05,0.89995 -1.34999,0.44998 -0.75,0.14998 -0.74998,-0.14998 -1.2,-0.74997 -1.05,-1.04994 -0.44999,-1.34992 0,-0.74996 0.15,-0.74995 0.59999,-1.34993 1.2,-0.89995 1.34998,-0.59996 0.75,0 0.6,0.14999 1.34999,0.59996 0.9,1.19994 0.45,1.34992 0.15,0.74995 -0.15,0.74996 z m 4.94997,-3.59979 1.79999,-3.5998 -3.89997,-0.29998 0.45,0.59995 1.79999,0.29999 -5.09998,2.84983 -1.2,-1.04993 -1.34999,-0.59995 -0.75,-0.15 -0.9,0 -0.89998,0.15 -0.75,0.44997 -1.34999,1.19993 -0.75,1.49991 -0.15,0.89995 0,0.89995 0.15,0.89995 0.3,0.89995 1.19998,1.19992 1.65001,0.89996 0.89998,0.14999 0.9,0 0.9,-0.29998 0.74999,-0.29999 1.35,-1.19992 0.45,-0.74997 0.29999,-1.04994 0.15,-1.49991 -0.44999,-1.49991 5.09998,-2.99984 -0.75,1.7999 0.14999,0.59997 z"
       id="path3190"
       style="fill:#fa3921;fill-opacity:1;fill-rule:evenodd;stroke:none" />
  </g>
</svg>
