<?xml version="1.0" encoding="UTF-8" standalone="no"?>
<!-- Created with Inkscape (http://www.inkscape.org/) -->

<svg
   xmlns:dc="http://purl.org/dc/elements/1.1/"
   xmlns:cc="http://creativecommons.org/ns#"
   xmlns:rdf="http://www.w3.org/1999/02/22-rdf-syntax-ns#"
   xmlns:svg="http://www.w3.org/2000/svg"
   xmlns="http://www.w3.org/2000/svg"
   version="1.1"
   width="19.499901"
   height="19.49888"
   id="svg7011">
  <defs
     id="defs7013" />
  <metadata
     id="metadata7016">
    <rdf:RDF>
      <cc:Work
         rdf:about="">
        <dc:format>image/svg+xml</dc:format>
        <dc:type
           rdf:resource="http://purl.org/dc/dcmitype/StillImage" />
        <dc:title></dc:title>
      </cc:Work>
    </rdf:RDF>
  </metadata>
  <g
     transform="translate(-329.40539,-383.74904)"
     id="layer1">
    <path
       d="m 329.40539,393.49848 0,-0.15 0,-0.14998 0.15,-1.34993 0.15,-0.14998 0,-0.14999 0.3,-1.34992 0,-0.15 0.15,-0.14999 0,-0.14999 0.15,-0.14999 0,-0.14999 0.74999,-1.19993 0.15,-0.15 0.9,-1.19992 0,-0.14999 0.15,-0.15 0.15,-0.14999 1.04998,-0.89995 0.15,0 0.15,-0.14999 0.15,0 0.15,-0.15 1.20001,-0.59996 0.14999,0 0.15,-0.14999 1.34999,-0.44997 0.15,0 0.15,0 0.15,-0.14999 1.49999,-0.15 0.15,0 0.15,0 0.15,0 0.15,0 1.49999,0.15 0.15,0.14999 0.15,0 0.15,0 1.35,0.44997 0.15,0.14999 0.15,0 1.19998,0.59996 0.15,0.15 0.15,0 0.15001,0.14999 0.14999,0 1.05,0.89995 0.15,0.14999 0.14999,0.15 0.9,1.04994 0,0.14998 0.15,0.14999 0.75,1.19994 0,0.14997 0.15,0.15 0,0.14999 0.15,0.14999 0,0.14998 0.3,1.34993 0,0.15 0.14999,0.14999 0.15,1.49991 0,0.14999 0,0.15 0,0.14999 0,0.14998 -0.15,1.49993 -0.14999,0.14998 0,0.14999 -0.3,1.34993 0,0.14998 -0.15,0.15001 0,0.14998 -0.15,0.14999 0,0.15 -0.75,1.19993 -0.15,0.14998 0,0.15 -0.9,1.04994 -0.14999,0.14999 -0.15,0.15 -1.05,0.89994 -0.15,0 -0.15,0.14999 -0.15,0 0,0.14999 -1.34998,0.74996 -0.15,0 -0.15,0 -0.15,0.14999 -0.15,0 -1.2,0.29999 -0.15,0 -0.15,0.14999 -1.49999,0.14999 -0.15,0 -0.15,0 -0.15,0 -0.15,0 -1.49999,-0.14999 -0.15,-0.14999 -0.15,0 -1.2,-0.29999 -0.14999,0 -0.15,-0.14999 -0.15,0 -0.15,0 -1.35,-0.74996 0,-0.14999 -0.15,0 -0.15,-0.14999 -0.15,0 -1.04998,-0.89994 -0.15,-0.15 -0.15,-0.14999 -0.9,-1.04994 0,-0.15 -0.15,-0.14998 -0.74999,-1.19993 0,-0.15 -0.15,-0.14999 0,-0.14998 -0.15,-0.15001 0,-0.14998 -0.3,-1.34993 0,-0.14999 -0.15,-0.14998 -0.15,-1.49993 0,-0.14998 0,-0.14999 z"
       id="path3144"
       style="fill:#ffffff;fill-opacity:1;fill-rule:evenodd;stroke:none" />
    <path
       d="m 345.90531,393.49848 -0.15,-1.34993 -0.29999,-1.34992 -0.60001,-1.04994 -0.89999,-1.19994 -1.04999,-0.74995 -1.2,-0.74996 -1.34999,-0.29998 -1.35,-0.14999 -1.34999,0.14999 -1.35,0.29998 -1.19999,0.74996 -1.05,0.89995 -0.89998,1.04994 -0.6,1.19992 -0.3,1.19994 -0.15,1.34993 0.15,1.49991 0.3,1.19994 0.74998,1.19992 0.75,1.04994 1.05,0.89995 1.19999,0.59996 1.35,0.29999 1.34999,0.14999 1.35,-0.14999 1.34999,-0.29999 1.05,-0.59996 1.19999,-0.89995 0.89999,-1.04994 0.60001,-1.19992 0.29999,-1.34991 0.15,-1.34994 z"
       id="path3146"
       style="fill:#ffffff;fill-opacity:1;fill-rule:evenodd;stroke:none" />
    <path
       d="m 346.3553,393.49848 -0.15,-1.49991 -0.29999,-1.34993 -0.75,-1.19994 -0.9,-1.04994 -1.04998,-0.89994 -1.2,-0.59995 -1.34999,-0.44999 -1.5,-0.14998 -1.49999,0.14998 -1.35,0.44999 -1.19999,0.59995 -1.05,0.89994 -0.89998,1.19994 -0.75,1.19994 -0.3,1.34992 -0.15,1.34993 0.15,1.49991 0.3,1.34993 0.75,1.19992 0.89998,1.04994 1.05,0.89995 1.34999,0.74996 1.2,0.29999 1.49999,0.14999 1.5,-0.14999 1.19999,-0.29999 1.35,-0.74996 1.04998,-0.89995 0.9,-1.04994 0.75,-1.19992 0.29999,-1.34993 0.15,-1.49991 z m -0.74999,0 -0.14999,1.34994 -0.30001,1.19992 -0.6,1.04994 -0.9,1.04995 -0.89998,0.74995 -1.05,0.59996 -1.19999,0.29999 -1.35,0.14997 -1.34999,-0.14997 -1.2,-0.29999 -1.04999,-0.59996 -0.9,-0.74995 -0.89999,-1.04995 -0.59999,-1.04994 -0.3,-1.19992 -0.15,-1.34994 0.15,-1.19994 0.3,-1.19992 0.59999,-1.19994 0.89999,-0.89995 0.9,-0.89995 1.04999,-0.59996 1.2,-0.29998 1.34999,-0.14999 1.35,0.14999 1.19999,0.29998 1.05,0.59996 1.04998,0.89995 0.75,0.89995 0.6,1.04993 0.30001,1.19994 0.14999,1.34993 z m -2.84998,2.09987 -0.15,-0.74995 -0.3,-0.44997 -0.45,-0.59998 -0.75,-0.44997 -0.15,0 -0.44999,-0.14999 -0.6,-0.14999 -0.75,-0.15 -1.19999,-0.44995 -0.6,-0.29999 -0.45,-0.29998 0,-0.44998 0,-0.74995 0.45,-0.44997 0.6,-0.15 1.19999,-0.14999 0.9,0.14999 0.75,0.29997 0.44999,0.59996 0.3,0.74997 0.9,0 -0.15,-0.74997 -0.3,-0.74994 -0.45,-0.44998 -0.74999,-0.29999 -0.75,-0.14997 -1.05,-0.14999 -1.64999,0.29998 -0.6,0.44997 -0.6,0.44998 -0.15,0.59996 -0.15,0.59997 0.15,0.89995 0.6,0.59996 1.2,0.44998 0.45,0.14999 0.74999,0.29997 0.9,0.14999 0.75,0.29999 0.74999,0.59996 0.3,0.89995 -0.15,0.59996 -0.45,0.44998 -0.44999,0.29999 -0.75,0.29997 -0.6,0 -1.49999,-0.29997 -0.9,-0.74997 -0.45,-0.59996 -0.15,-0.59996 -0.89999,0 0.15,0.89994 0.44999,0.74996 0.6,0.59996 0.75,0.44997 0.9,0.29999 1.04999,0 0.9,0 0.89999,-0.29999 0.75,-0.44997 0.45,-0.59996 0.3,-0.59997 0.15,-0.74996 z"
       id="path3148"
       style="fill:#4273dc;fill-opacity:1;fill-rule:evenodd;stroke:none" />
  </g>
</svg>
