<?xml version="1.0" encoding="UTF-8" standalone="no"?>
<!-- Created with Inkscape (http://www.inkscape.org/) -->

<svg
   xmlns:dc="http://purl.org/dc/elements/1.1/"
   xmlns:cc="http://creativecommons.org/ns#"
   xmlns:rdf="http://www.w3.org/1999/02/22-rdf-syntax-ns#"
   xmlns:svg="http://www.w3.org/2000/svg"
   xmlns="http://www.w3.org/2000/svg"
   version="1.1"
   width="19.349899"
   height="19.34889"
   id="svg7011">
  <defs
     id="defs7013" />
  <metadata
     id="metadata7016">
    <rdf:RDF>
      <cc:Work
         rdf:about="">
        <dc:format>image/svg+xml</dc:format>
        <dc:type
           rdf:resource="http://purl.org/dc/dcmitype/StillImage" />
        <dc:title></dc:title>
      </cc:Work>
    </rdf:RDF>
  </metadata>
  <g
     transform="translate(-326.72453,-395.8746)"
     id="layer1">
    <path
       d="m 326.72453,405.62404 0,-0.14999 0,-0.14999 0.15,-1.49991 0.15,-0.15 0,-0.14999 0.3,-1.34992 0,-0.14999 0.15,-0.14999 0,-0.15 0.15,-0.14998 0,-0.14999 0.74999,-1.19994 0.15,-0.14999 0,-0.15 0.9,-1.04994 0.15,-0.14998 0.15,-0.14999 1.04998,-0.89995 0.15,0 0.15,-0.15 0.15,0 0.15,-0.14999 1.2,-0.59996 0.15,0 0.15,-0.14999 1.34999,-0.44997 0.15,0 0.15,0 0.15,-0.15 1.34999,-0.14999 0.15,0 0.15,0 0.15,0 0.15,0 1.5,0.14999 0.14999,0.15 0.15,0 0.15,0 1.35,0.44997 0.15,0.14999 0.15,0 1.19998,0.59996 0.15,0.14999 0.15,0 0.15,0.15 0.15,0 1.05,0.89995 0.15,0.14999 0.15,0.14998 0.89999,1.04994 0,0.15 0.15,0.14999 0.75,1.19994 0,0.14999 0.15,0.14998 0,0.15 0.15,0.14999 0,0.14999 0.3,1.34992 0,0.14999 0.15,0.15 0.14999,1.49991 0,0.14999 0,0.14999 0,0.15 0,0.14997 -0.14999,1.34994 -0.15,0.14998 0,0.14999 -0.3,1.34992 0,0.15 -0.15,0.14998 0,0.14999 -0.15,0.15 0,0.14999 -0.75,1.19994 -0.15,0.14999 0,0.14998 -0.89999,1.04994 -0.15,0.15 -0.15,0.14999 -1.05,0.89995 -0.15,0 -0.15,0.14999 -1.19998,0.74996 -0.15,0 -0.15,0.14999 -0.15,0 -0.15,0.14998 -0.15,0 -1.35,0.29999 -0.15,0 -0.14999,0.14999 -1.5,0.15 -0.15,0 -0.15,0 -0.15,0 -0.15,0 -1.34999,-0.15 -0.15,-0.14999 -0.15,0 -1.34999,-0.29999 -0.15,0 -0.15,-0.14998 -0.15,0 -0.15,-0.14999 -0.15,0 -1.2,-0.74996 -0.15,-0.14999 -0.15,0 -1.04998,-0.89995 -0.15,-0.14999 -0.15,-0.15 -0.9,-1.04994 0,-0.14998 -0.15,-0.14999 -0.74999,-1.19994 0,-0.14999 -0.15,-0.15 0,-0.14999 -0.15,-0.14998 0,-0.15 -0.3,-1.34992 0,-0.14999 -0.15,-0.14998 -0.15,-1.34994 0,-0.14997 0,-0.15 z"
       id="path3104"
       style="fill:#ffffff;fill-opacity:1;fill-rule:evenodd;stroke:none" />
    <path
       d="m 343.22445,405.47404 -0.15,-1.34993 -0.3,-1.34992 -0.6,-1.04994 -0.9,-1.19993 -1.04998,-0.74996 -1.2,-0.74995 -1.34999,-0.29998 -1.35,-0.14999 -1.34999,0.14999 -1.35,0.29998 -1.19999,0.74995 -1.05,0.89995 -0.89998,1.04994 -0.6,1.19994 -0.3,1.19992 -0.15,1.34993 0.15,1.49991 0.3,1.19994 0.74998,1.19992 0.75,1.04996 1.05,0.89993 1.19999,0.59999 1.35,0.29997 1.34999,0.15 1.35,-0.15 1.34999,-0.29997 1.05,-0.59999 1.19998,-0.89993 0.9,-1.04996 0.6,-1.19992 0.3,-1.34993 0.15,-1.34992 z"
       id="path3106"
       style="fill:#ffffff;fill-opacity:1;fill-rule:evenodd;stroke:none" />
    <path
       d="m 343.52444,405.62404 -0.14999,-1.49991 -0.3,-1.34994 -0.75,-1.19993 -0.9,-1.04994 -1.04998,-0.89994 -1.2,-0.59997 -1.34999,-0.44997 -1.5,-0.15 -1.34999,0.15 -1.35,0.44997 -1.19999,0.59997 -1.05,0.89994 -0.89998,1.04994 -0.75,1.19993 -0.3,1.34994 -0.15,1.49991 0.15,1.34992 0.3,1.34993 0.75,1.19994 0.89998,1.04993 1.05,0.89995 1.19999,0.74995 1.35,0.29999 1.34999,0.14999 1.5,-0.14999 1.34999,-0.29999 1.2,-0.74995 1.04998,-0.89995 0.9,-1.04993 0.75,-1.19994 0.3,-1.34993 0.14999,-1.34992 z m -0.59999,0 -0.15,1.19993 -0.3,1.19993 -0.6,1.19994 -0.9,0.89995 -0.89998,0.89995 -1.2,0.59996 -1.19999,0.29999 -1.35,0.14997 -1.19999,-0.14997 -1.2,-0.29999 -1.19999,-0.59996 -0.9,-0.89995 -0.9,-0.89995 -0.59998,-1.19994 -0.3,-1.19993 -0.15,-1.19993 0.15,-1.34992 0.3,-1.19993 0.59998,-1.04994 0.9,-1.04994 0.9,-0.89995 1.19999,-0.59996 1.2,-0.29999 1.19999,-0.14998 1.35,0.14998 1.19999,0.29999 1.2,0.59996 0.89998,0.89995 0.9,0.89995 0.6,1.19993 0.3,1.19993 0.15,1.34992 z m -7.04997,4.64974 0.9,0 0,-8.09954 2.84999,0 0,-0.89995 -6.59997,0 0,0.89995 2.84998,0 0,8.09954 z"
       id="path3108"
       style="fill:#003893;fill-opacity:1;fill-rule:evenodd;stroke:none" />
  </g>
</svg>
