<?xml version="1.0" encoding="UTF-8" standalone="no"?>
<!-- Created with Inkscape (http://www.inkscape.org/) -->

<svg
   xmlns:dc="http://purl.org/dc/elements/1.1/"
   xmlns:cc="http://creativecommons.org/ns#"
   xmlns:rdf="http://www.w3.org/1999/02/22-rdf-syntax-ns#"
   xmlns:svg="http://www.w3.org/2000/svg"
   xmlns="http://www.w3.org/2000/svg"
   version="1.1"
   width="19.499901"
   height="19.34889"
   id="svg7011">
  <defs
     id="defs7013" />
  <metadata
     id="metadata7016">
    <rdf:RDF>
      <cc:Work
         rdf:about="">
        <dc:format>image/svg+xml</dc:format>
        <dc:type
           rdf:resource="http://purl.org/dc/dcmitype/StillImage" />
        <dc:title></dc:title>
      </cc:Work>
    </rdf:RDF>
  </metadata>
  <g
     transform="translate(-330.38831,-383.09314)"
     id="layer1">
    <path
       d="m 330.38831,392.84259 0,-0.14999 0,-0.15 0.15,-1.49991 0.15,-0.14999 0,-0.14999 0.3,-1.34992 0,-0.15 0.15,-0.14999 0,-0.14999 0.15,-0.15 0,-0.14998 0.74999,-1.19993 0.15,-0.15 0,-0.14999 0.9,-1.04993 0.15,-0.15 0.15,-0.14999 1.04999,-0.89995 0.14999,0 0.15,-0.14999 0.15001,0 0.14999,-0.14999 1.20001,-0.59997 0.15,0 0.14999,-0.14999 1.34999,-0.44997 0.15,0 0.15,0 0.15,-0.14999 1.49999,-0.15 0.15,0 0.15,0 0.15,0 0.15,0 1.49999,0.15 0.15,0.14999 0.15,0 0.15,0 1.35,0.44997 0.15,0.14999 0.15,0 1.19998,0.59997 0.15001,0.14999 0.14999,0 0.15001,0.14999 0.15,0 1.05,0.89995 0.14999,0.14999 0.14999,0.15 0.9,1.04993 0,0.14999 0.15,0.15 0.75,1.19993 0,0.14998 0.15,0.15 0,0.14999 0.15,0.14999 0,0.15 0.3,1.34992 0,0.14999 0.14999,0.14999 0.15,1.49991 0,0.15 0,0.14999 0,0.14997 0,0.15 -0.15,1.34992 -0.14999,0.15 0,0.14998 -0.3,1.34993 0,0.14999 -0.15,0.15 0,0.14998 -0.15,0.14999 0,0.14999 -0.75,1.19994 -0.15,0.14998 0,0.15 -0.9,1.04994 -0.14999,0.14999 -0.14999,0.14999 -1.05,0.89995 -0.15001,0 -0.15,0.15 -0.14999,0 0,0.14998 -1.34999,0.74997 -0.15,0 -0.15,0 -0.15,0.14998 -0.15,0 -1.2,0.29999 -0.15,0 -0.15,0.14999 -1.49999,0.14999 -0.15,0 -0.15,0 -0.15,0 -0.15,0 -1.49999,-0.14999 -0.15,-0.14999 -0.15,0 -1.34998,-0.29999 -0.15001,0 -0.14999,-0.14998 -0.15001,0 -0.15,-0.15 -0.14999,0 -1.20001,-0.74995 -0.15,-0.15 -0.14999,0 -1.04999,-0.89995 -0.15,-0.14999 -0.15,-0.14999 -0.9,-1.04994 0,-0.15 -0.15,-0.14998 -0.74999,-1.19994 0,-0.14999 -0.15,-0.14999 0,-0.14998 -0.15,-0.15 0,-0.14999 -0.3,-1.34993 0,-0.14998 -0.15,-0.15 -0.15,-1.34992 0,-0.15 0,-0.14998 z"
       id="path3154"
       style="fill:#ffffff;fill-opacity:1;fill-rule:evenodd;stroke:none" />
    <path
       d="m 346.88824,392.69259 -0.15001,-1.34993 -0.29999,-1.34992 -0.6,-1.04994 -0.9,-1.19994 -1.04999,-0.74995 -1.2,-0.74996 -1.34999,-0.29999 -1.35,-0.14997 -1.34999,0.14997 -1.35,0.29999 -1.19999,0.74996 -1.05,0.89995 -0.89998,1.04994 -0.6,1.19993 -0.3,1.19993 -0.15,1.34993 0.15,1.49991 0.3,1.19993 0.74998,1.19993 0.75,1.04994 1.05,0.89995 1.19999,0.59996 1.35,0.29999 1.34999,0.14999 1.35,-0.14999 1.34999,-0.29999 1.05,-0.59996 1.19999,-0.89995 0.9,-1.04994 0.6,-1.19993 0.29999,-1.34993 0.15001,-1.34991 z"
       id="path3156"
       style="fill:#ffffff;fill-opacity:1;fill-rule:evenodd;stroke:none" />
    <path
       d="m 347.33822,392.84259 -0.15,-1.49991 -0.29998,-1.34994 -0.75,-1.19994 -0.90001,-1.04992 -1.04998,-0.89997 -1.2,-0.59995 -1.34999,-0.44997 -1.5,-0.14999 -1.49999,0.14999 -1.35,0.44997 -1.19999,0.59995 -1.05,0.89997 -0.89998,1.04992 -0.75,1.19994 -0.3,1.34994 -0.15,1.49991 0.15,1.34992 0.3,1.34993 0.75,1.19992 0.89998,1.04994 1.05,0.89995 1.19999,0.74996 1.35,0.29998 1.49999,0.15 1.5,-0.15 1.19999,-0.29998 1.35,-0.74996 1.04998,-0.89995 0.90001,-1.04994 0.75,-1.19992 0.29998,-1.34993 0.15,-1.34992 z m -0.59999,0 -0.14999,1.19992 -0.30001,1.19994 -0.6,1.19994 -0.9,0.89992 -1.04998,0.89997 -1.05,0.59997 -1.19999,0.29998 -1.35,0.15 -1.34999,-0.15 -1.2,-0.29998 -1.04999,-0.59997 -1.05,-0.89997 -0.9,-0.89992 -0.59998,-1.19994 -0.3,-1.19994 -0.15,-1.19992 0.15,-1.34994 0.3,-1.19992 0.59998,-1.04995 0.9,-1.04994 1.05,-0.89995 1.04999,-0.59996 1.2,-0.29999 1.34999,-0.14998 1.35,0.14998 1.19999,0.29999 1.05,0.59996 1.04998,0.89995 0.9,0.89995 0.6,1.19994 0.30001,1.19992 0.14999,1.34994 z m -11.39995,-3.14983 1.94999,7.19959 1.05,0 1.79999,-6.29964 0.15,0.15 0.15,0.59997 1.49999,5.54966 0.9,0 2.09998,-7.19958 -1.04998,0 -1.2,4.79973 -0.15,0.74996 -0.15,0.59995 -0.15,-1.04992 -0.44999,-1.49992 -1.05,-3.74978 -1.35,0 -1.49999,6.29963 -0.15,-0.59996 -0.15,-0.74996 -1.19998,-4.79973 -1.05001,0 z"
       id="path3158"
       style="fill:#003893;fill-opacity:1;fill-rule:evenodd;stroke:none" />
  </g>
</svg>
