<?xml version="1.0" encoding="UTF-8" standalone="no"?>
<!-- Created with Inkscape (http://www.inkscape.org/) -->

<svg
   xmlns:dc="http://purl.org/dc/elements/1.1/"
   xmlns:cc="http://creativecommons.org/ns#"
   xmlns:rdf="http://www.w3.org/1999/02/22-rdf-syntax-ns#"
   xmlns:svg="http://www.w3.org/2000/svg"
   xmlns="http://www.w3.org/2000/svg"
   version="1.1"
   width="20.6999"
   height="31.948191"
   id="svg7011">
  <defs
     id="defs7013" />
  <metadata
     id="metadata7016">
    <rdf:RDF>
      <cc:Work
         rdf:about="">
        <dc:format>image/svg+xml</dc:format>
        <dc:type
           rdf:resource="http://purl.org/dc/dcmitype/StillImage" />
        <dc:title></dc:title>
      </cc:Work>
    </rdf:RDF>
  </metadata>
  <g
     transform="translate(-304.44635,-406.45214)"
     id="layer1">
    <path
       d="m 304.44635,433.00063 0,-0.14999 0,-0.14999 0.15,-0.15 0.15,-0.74995 0,-0.15 0,-0.14998 0.15,-0.14999 0,-0.15 0.15,-0.14999 0,-0.14999 0.15,-0.15 0,-0.14999 0.15,-0.14998 0.45,-0.44998 0.15,-0.14999 0.15,0 0.74999,-0.59997 0.15,-0.14999 0.15,0 0.15,-0.14998 0.9,-0.44998 0.15,0 0.15,-0.15 0.15,0 2.54999,-0.59996 0.14999,0 0.15001,-0.14999 0,-10.34941 -0.15001,-0.14999 -0.14999,0 -2.54999,-0.59998 -0.15,0 -0.15,-0.14998 -0.15,0 -0.9,-0.44998 -0.15,-0.14998 -0.15,0 -0.15,-0.14999 -0.74999,-0.59998 -0.15,0 -0.15,-0.14999 -0.45,-0.44997 -0.15,-0.14999 0,-0.15 -0.15,-0.14999 0,-0.14998 -0.15,-0.15 0,-0.14999 -0.15,-0.14999 0,-0.15 -0.15,-0.59996 0,-0.14999 -0.15,-0.14999 0,-0.15 0,-0.14998 0,-0.14999 0,-0.15 0.15,-0.14999 0,-0.14999 0.15,-0.59997 0,-0.14999 0.15,-0.14999 0,-0.15 0.15,-0.14998 0,-0.14999 0.15,-0.14999 0.45,-0.59997 0,-0.14999 0.15,-0.14999 0.15,-0.15 0.15,0 0.15,-0.14999 0.74999,-0.44997 0.9,-0.59996 0.15,0 0.15,-0.15 0.15,0 0.15,-0.14999 0.15,0 2.54999,-0.59996 0.14999,0 0.15001,-0.14999 0.14998,0 2.99999,-0.15 0.15,0 0.15,0 2.99999,0.15 0.15,0 0.15,0.14999 0.15,0 0.15,0 2.54999,0.74995 0.14999,0.15 0.15001,0 1.04998,0.44997 0.15,0.14999 0.15,0 0.75,0.44997 0.15,0.14999 0.15,0 0.15,0.15 0.15,0.14999 0,0.14999 0.15,0.15 0,0.14998 0.15,0.14999 0.29999,0.59996 0,0.15 0.15,0.14999 0,0.14999 0.15,0.59997 0,0.14999 0.15,0.14999 0,0.15 0,0.14999 0,0.14998 0,0.15 -0.15,0.14999 0,0.14999 -0.15,0.59996 0,0.15 -0.15,0.14999 0,0.14999 -0.15,0.15 0,0.14998 -0.29999,0.44998 -0.15,0.14999 0,0.15 -0.15,0.14998 -0.15,0.14999 -0.15,0 -0.75,0.59998 -0.15,0.14999 -0.15,0 -0.15,0.14998 -1.04998,0.44998 -0.15001,0 -0.14999,0.14998 -0.15,0 -2.54999,0.59998 -0.15,0 0,10.64939 0.15,0 0.15,0 2.54999,0.74996 1.04998,0.29997 0.15,0.15 0.15,0 0.15,0.14999 0.15,0 0.15,0.14999 0.75,0.59997 0.15,0 0.15,0.14999 0.15,0.14999 0,0.14999 0.15,0.15 0.29999,0.44997 0,0.14999 0.15,0.14999 0,0.15 0.15,0.14998 0,0.14999 0,0.15 0.15,0.74995 0.15,0.15 0,0.14999 0,0.14999 0,0.14998 0,0.15 -0.15,0.14999 0,0.14999 -0.15,0.59997 0,0.14999 -0.15,0.14999 0,0.15 -0.15,0.15 0,0.14999 -0.29999,0.44996 -0.15,0.15 0,0.15 -0.15,0.14999 -0.15,0.14998 -0.15,0 -0.75,0.59998 -0.15,0.14999 -0.15,0 -0.15,0.14998 -1.04998,0.44998 -0.15,0 -0.15,0.15 -0.15,0 -2.54999,0.59996 -0.15,0 -0.15,0.14999 -0.15,0 -2.99999,0.14999 -0.15,0 -0.15,0 -2.99999,-0.14999 -0.14998,0 -0.15001,-0.14999 -0.14999,0 -2.54999,-0.59996 -0.15,0 -0.15,-0.15 -0.15,0 -0.9,-0.44998 -0.15,-0.14998 -0.15,0 -0.15,-0.14999 -0.74999,-0.59998 -0.15,0 -0.15,-0.14998 -0.45,-0.44998 -0.15,-0.14999 0,-0.14998 -0.15,-0.15 0,-0.14999 -0.15,-0.15 0,-0.15 -0.15,-0.14999 0,-0.14999 -0.15,-0.59997 0,-0.14999 -0.15,-0.14999 0,-0.14999 0,-0.14999 z"
       id="path3038"
       style="fill:#ffffff;fill-opacity:1;fill-rule:evenodd;stroke:none" />
    <path
       d="m 315.6963,412.15183 -1.64999,0 0,20.54883 1.64999,0 0,-20.54883 z m -8.69996,-0.15 0.15,0.59996 0.45,0.44997 0.75,0.59997 0.89999,0.44997 2.54998,0.59998 2.99999,0.14998 2.99999,-0.14998 2.54999,-0.59998 1.05,-0.44997 0.74998,-0.59997 0.3,-0.44997 0.15,-0.59996 -0.15,-0.59995 -0.3,-0.59998 -0.74998,-0.44997 -1.05,-0.44997 -2.54999,-0.74996 -2.99999,-0.14999 -2.99999,0.14999 -2.54998,0.59996 -0.89999,0.59997 -0.75,0.44997 -0.45,0.59998 -0.15,0.59995 z m 0,20.9988 0.15,0.59996 0.45,0.44997 0.75,0.59998 0.89999,0.44997 2.54998,0.59997 2.99999,0.14998 2.99999,-0.14998 2.54999,-0.59997 1.05,-0.44997 0.74998,-0.59998 0.3,-0.44997 0.15,-0.59996 -0.15,-0.74995 -0.3,-0.44997 -0.74998,-0.59997 -1.05,-0.29998 -2.54999,-0.74996 -2.99999,-0.14999 -2.99999,0.14999 -2.54998,0.59996 -0.89999,0.44998 -0.75,0.59997 -0.45,0.44997 -0.15,0.74995 z"
       id="path3040"
       style="fill:#000000;fill-opacity:1;fill-rule:evenodd;stroke:none" />
  </g>
</svg>
