<?xml version="1.0" encoding="UTF-8" standalone="no"?>
<!-- Created with Inkscape (http://www.inkscape.org/) -->

<svg
   xmlns:dc="http://purl.org/dc/elements/1.1/"
   xmlns:cc="http://creativecommons.org/ns#"
   xmlns:rdf="http://www.w3.org/1999/02/22-rdf-syntax-ns#"
   xmlns:svg="http://www.w3.org/2000/svg"
   xmlns="http://www.w3.org/2000/svg"
   version="1.1"
   width="72.061249"
   height="11.4375"
   id="svg2"
   xml:space="preserve"><metadata
     id="metadata8"><rdf:RDF><cc:Work
         rdf:about=""><dc:format>image/svg+xml</dc:format><dc:type
           rdf:resource="http://purl.org/dc/dcmitype/StillImage" /><dc:title></dc:title></cc:Work></rdf:RDF></metadata><defs
     id="defs6"><clipPath
       id="clipPath18"><path
         d="m -1836,864 1836,0 0,-936 -1836,0 0,936 z"
         id="path20" /></clipPath><clipPath
       id="clipPath24"><path
         d="m 18.14,14.16998 575.72,0 0,763.66 -575.72,0 0,-763.66 z"
         id="path26" /></clipPath><clipPath
       id="clipPath40"><path
         d="m 0,864 1836,0 0,-936 -1836,0 0,936 z"
         id="path42" /></clipPath><clipPath
       id="clipPath46"><path
         d="m 18.14,14.16998 575.72,0 0,763.66 -575.72,0 0,-763.66 z"
         id="path48" /></clipPath><clipPath
       id="clipPath70"><path
         d="m 0,864 1836,0 0,-936 -1836,0 0,936 z"
         id="path72" /></clipPath><clipPath
       id="clipPath76"><path
         d="m 535.5505,278.6814 86.4505,0 0,77.2337 -86.4505,0 0,-77.2337 z"
         id="path78" /></clipPath><clipPath
       id="clipPath82"><path
         d="m 535.551,279.643 58.30897,0 0,76.272 -58.30897,0 0,-76.272 z"
         id="path84" /></clipPath><clipPath
       id="clipPath94"><path
         d="m 0,864 1836,0 0,-936 -1836,0 0,936 z"
         id="path96" /></clipPath><clipPath
       id="clipPath100"><path
         d="m 18.14,14.16998 575.72,0 0,763.66 -575.72,0 0,-763.66 z"
         id="path102" /></clipPath><clipPath
       id="clipPath106"><path
         d="m 575,63 19,0 0,207 -19,0 0,-207 z"
         id="path108" /></clipPath><clipPath
       id="clipPath110"><path
         d="m 557.328,14 36.672,0 0,255.895 -36.672,0 0,-255.895 z"
         id="path112" /></clipPath><clipPath
       id="clipPath138"><path
         d="m 0,864 1836,0 0,-936 -1836,0 0,936 z"
         id="path140" /></clipPath><clipPath
       id="clipPath144"><path
         d="m 18.14,14.16998 575.72,0 0,763.66 -575.72,0 0,-763.66 z"
         id="path146" /></clipPath><clipPath
       id="clipPath150"><path
         d="m 565,685 25,0 0,26 -25,0 0,-26 z"
         id="path152" /></clipPath><clipPath
       id="clipPath154"><path
         d="m 534.95,684.636 59.04999,0 0,26.17993 -59.04999,0 0,-26.17993 z"
         id="path156" /></clipPath><clipPath
       id="clipPath184"><path
         d="m 18.14,14.16998 575.72,0 0,763.66 -575.72,0 0,-763.66 z"
         id="path186" /></clipPath><clipPath
       id="clipPath282"><path
         d="m 87.80101,654.5891 50.69899,0 0,-29.5251 -50.69899,0 0,29.5251 z"
         id="path284" /></clipPath><clipPath
       id="clipPath288"><path
         d="m 87.80101,654.5891 50.69899,0 0,-29.5251 -50.69899,0 0,29.5251 z"
         id="path290" /></clipPath><clipPath
       id="clipPath294"><path
         d="m 138.5,607.971 -55.918,0 0,55.942 55.918,0 0,-55.942 z"
         id="path296" /></clipPath><clipPath
       id="clipPath300"><path
         d="m 87.80101,633.2141 44.028,0 0,21.375 -44.028,0 0,-21.375 z"
         id="path302" /></clipPath><clipPath
       id="clipPath326"><path
         d="m 81.32901,593.9641 57.748,0 0,19.125 -57.748,0 0,-19.125 z"
         id="path328" /></clipPath><clipPath
       id="clipPath344"><path
         d="m 72,555.5891 75.46201,0 0,19.125 -75.46201,0 0,-19.125 z"
         id="path346" /></clipPath><clipPath
       id="clipPath444"><path
         d="m 75,535.0891 71.969,0 0,-25.605 -71.969,0 0,25.605 z"
         id="path446" /></clipPath><clipPath
       id="clipPath450"><path
         d="m 75,535.0891 71.969,0 0,-25.605 -71.969,0 0,25.605 z"
         id="path452" /></clipPath><clipPath
       id="clipPath456"><path
         d="m 146.969,483.089 -71.969,0 0,72 71.969,0 0,-72 z"
         id="path458" /></clipPath><clipPath
       id="clipPath462"><path
         d="m 72,515.9641 79.26901,0 0,19.125 -79.26901,0 0,-19.125 z"
         id="path464" /></clipPath><clipPath
       id="clipPath504"><path
         d="m 77.25,500.25 70.969,0 0,-28 -70.969,0 0,28 z"
         id="path506" /></clipPath><clipPath
       id="clipPath510"><path
         d="m 77.25,500.25 70.969,0 0,-28 -70.969,0 0,28 z"
         id="path512" /></clipPath><clipPath
       id="clipPath516"><path
         d="m 148.219,450.25 -71.969,0 0,72 71.969,0 0,-72 z"
         id="path518" /></clipPath><clipPath
       id="clipPath522"><path
         d="m 72,478.628 79.26901,0 0,19.125 -79.26901,0 0,-19.125 z"
         id="path524" /></clipPath><clipPath
       id="clipPath554"><path
         d="m 80.67601,448.379 59.49499,0 0,-2.879 -59.49499,0 0,2.879 z"
         id="path556" /></clipPath><clipPath
       id="clipPath560"><path
         d="m 80.67601,448.379 59.49499,0 0,-2.879 -59.49499,0 0,2.879 z"
         id="path562" /></clipPath><clipPath
       id="clipPath566"><path
         d="m 146.408,410.948 -71.96901,0 0,72 71.96901,0 0,-72 z"
         id="path568" /></clipPath><clipPath
       id="clipPath572"><path
         d="m 72,437.781 79.26901,0 0,19.125 -79.26901,0 0,-19.125 z"
         id="path574" /></clipPath><clipPath
       id="clipPath582"><path
         d="m 88.32901,402.563 44.028,0 0,13.267 -44.028,0 0,-13.267 z"
         id="path584" /></clipPath><clipPath
       id="clipPath592"><path
         d="m 78.875,384.808 69.969,0 0,-28 -69.969,0 0,28 z"
         id="path594" /></clipPath><clipPath
       id="clipPath598"><path
         d="m 78.875,384.808 69.969,0 0,-28 -69.969,0 0,28 z"
         id="path600" /></clipPath><clipPath
       id="clipPath604"><path
         d="m 148.844,333.808 -71.969,0 0,72 71.969,0 0,-72 z"
         id="path606" /></clipPath><clipPath
       id="clipPath610"><path
         d="m 76.5,359.551 69.57701,0 0,19.125 -69.57701,0 0,-19.125 z"
         id="path612" /></clipPath><clipPath
       id="clipPath642"><path
         d="m 80.67601,332.25 59.49499,0 0,-2.879 -59.49499,0 0,2.879 z"
         id="path644" /></clipPath><clipPath
       id="clipPath648"><path
         d="m 80.67601,332.25 59.49499,0 0,-2.879 -59.49499,0 0,2.879 z"
         id="path650" /></clipPath><clipPath
       id="clipPath654"><path
         d="m 146.408,294.819 -71.96901,0 0,72 71.96901,0 0,-72 z"
         id="path656" /></clipPath><clipPath
       id="clipPath660"><path
         d="m 78.625,320.781 64.067,0 0,19.125 -64.067,0 0,-19.125 z"
         id="path662" /></clipPath><clipPath
       id="clipPath670"><path
         d="m 77.89801,321.577 65.04899,0 0,-48.808 -65.04899,0 0,48.808 z"
         id="path672" /></clipPath><clipPath
       id="clipPath676"><path
         d="m 77.89801,321.577 65.04899,0 0,-48.808 -65.04899,0 0,48.808 z"
         id="path678" /></clipPath><clipPath
       id="clipPath682"><path
         d="m 142.948,259.212 -65.049,0 0,65.077 65.049,0 0,-65.077 z"
         id="path684" /></clipPath><clipPath
       id="clipPath688"><path
         d="m 77.75,283.397 65.942,0 0,19.125 -65.942,0 0,-19.125 z"
         id="path690" /></clipPath><clipPath
       id="clipPath720"><path
         d="m 79.625,264.462 68.969,0 0,-28 -68.969,0 0,28 z"
         id="path722" /></clipPath><clipPath
       id="clipPath726"><path
         d="m 79.625,264.462 68.969,0 0,-28 -68.969,0 0,28 z"
         id="path728" /></clipPath><clipPath
       id="clipPath732"><path
         d="m 148.594,215.462 -71.969,0 0,72 71.969,0 0,-72 z"
         id="path734" /></clipPath><clipPath
       id="clipPath738"><path
         d="m 77.25,243.243 68.82701,0 0,19.125 -68.82701,0 0,-19.125 z"
         id="path740" /></clipPath><clipPath
       id="clipPath774"><path
         d="m 79.423,218.423 62,0 0,-10 -62,0 0,10 z"
         id="path776" /></clipPath><clipPath
       id="clipPath780"><path
         d="m 79.423,218.423 62,0 0,-10 -62,0 0,10 z"
         id="path782" /></clipPath><clipPath
       id="clipPath786"><path
         d="m 146.392,178.423 -71.969,0 0,72 71.969,0 0,-72 z"
         id="path788" /></clipPath><clipPath
       id="clipPath792"><path
         d="m 77.25,204.214 67.09601,0 0,19.125 -67.09601,0 0,-19.125 z"
         id="path794" /></clipPath><clipPath
       id="clipPath814"><path
         d="m 84.32901,182.077 53.18799,0 0,-11.114 -53.18799,0 0,11.114 z"
         id="path816" /></clipPath><clipPath
       id="clipPath820"><path
         d="m 84.32901,182.077 53.18799,0 0,-11.114 -53.18799,0 0,11.114 z"
         id="path822" /></clipPath><clipPath
       id="clipPath826"><path
         d="m 142.857,144.473 -64.08199,0 0,64.109 64.08199,0 0,-64.109 z"
         id="path828" /></clipPath><clipPath
       id="clipPath832"><path
         d="m 78,164.32 67.38501,0 0,19.125 -67.38501,0 0,-19.125 z"
         id="path834" /></clipPath><clipPath
       id="clipPath874"><path
         d="m 82.05801,150.736 56.69199,0 0,-27.57 -56.69199,0 0,27.57 z"
         id="path876" /></clipPath><clipPath
       id="clipPath880"><path
         d="m 82.05801,150.736 56.69199,0 0,-27.57 -56.69199,0 0,27.57 z"
         id="path882" /></clipPath><clipPath
       id="clipPath886"><path
         d="m 138.75,108.2 -56.692,0 0,56.716 56.692,0 0,-56.716 z"
         id="path888" /></clipPath><clipPath
       id="clipPath892"><path
         d="m 84.32901,127.628 51.86301,0 0,19.125 -51.86301,0 0,-19.125 z"
         id="path894" /></clipPath><clipPath
       id="clipPath916"><path
         d="m 294.811,417.445 58.263,0 0,-24.718 -58.263,0 0,24.718 z"
         id="path918" /></clipPath><clipPath
       id="clipPath922"><path
         d="m 294.811,417.445 58.263,0 0,-24.718 -58.263,0 0,24.718 z"
         id="path924" /></clipPath><clipPath
       id="clipPath928"><path
         d="m 355.695,376.837 -63.533,0 0,63.56 63.533,0 0,-63.56 z"
         id="path930" /></clipPath><clipPath
       id="clipPath934"><path
         d="m 289.811,398.32 62.41701,0 0,19.125 -62.41701,0 0,-19.125 z"
         id="path936" /></clipPath><clipPath
       id="clipPath966"><path
         d="m 290.811,455.906 60.694,0 0,-12.841 -60.694,0 0,12.841 z"
         id="path968" /></clipPath><clipPath
       id="clipPath972"><path
         d="m 290.811,455.906 60.694,0 0,-12.841 -60.694,0 0,12.841 z"
         id="path974" /></clipPath><clipPath
       id="clipPath978"><path
         d="m 357.142,407.913 -71.969,0 0,72 71.969,0 0,-72 z"
         id="path980" /></clipPath><clipPath
       id="clipPath984"><path
         d="m 290.811,437.781 61.18901,0 0,19.125 -61.18901,0 0,-19.125 z"
         id="path986" /></clipPath><clipPath
       id="clipPath1002"><path
         d="m 292.811,496.368 60.385,0 0,-23.493 -60.385,0 0,23.493 z"
         id="path1004" /></clipPath><clipPath
       id="clipPath1008"><path
         d="m 292.811,496.368 60.385,0 0,-23.493 -60.385,0 0,23.493 z"
         id="path1010" /></clipPath><clipPath
       id="clipPath1014"><path
         d="m 353.196,456.094 -60.385,0 0,60.411 60.385,0 0,-60.411 z"
         id="path1016" /></clipPath><clipPath
       id="clipPath1020"><path
         d="m 290.811,477.243 60.06401,0 0,19.125 -60.06401,0 0,-19.125 z"
         id="path1022" /></clipPath><clipPath
       id="clipPath1044"><path
         d="m 293.811,533.7531 61.154,0 0,-24.1281 -61.154,0 0,24.1281 z"
         id="path1046" /></clipPath><clipPath
       id="clipPath1050"><path
         d="m 293.811,533.7531 61.154,0 0,-24.1281 -61.154,0 0,24.1281 z"
         id="path1052" /></clipPath><clipPath
       id="clipPath1056"><path
         d="m 354.965,492.391 -62.016,0 0,62.042 62.016,0 0,-62.042 z"
         id="path1058" /></clipPath><clipPath
       id="clipPath1062"><path
         d="m 289.811,514.6281 62.007,0 0,19.125 -62.007,0 0,-19.125 z"
         id="path1064" /></clipPath><clipPath
       id="clipPath1094"><path
         d="m 293.811,573.906 62.969,0 0,-23 -62.969,0 0,23 z"
         id="path1096" /></clipPath><clipPath
       id="clipPath1100"><path
         d="m 293.811,573.906 62.969,0 0,-23 -62.969,0 0,23 z"
         id="path1102" /></clipPath><clipPath
       id="clipPath1106"><path
         d="m 356.78,527.906 -71.969,0 0,72 71.969,0 0,-72 z"
         id="path1108" /></clipPath><clipPath
       id="clipPath1112"><path
         d="m 289.811,554.781 62.826,0 0,19.125 -62.826,0 0,-19.125 z"
         id="path1114" /></clipPath><clipPath
       id="clipPath1144"><path
         d="m 294.917,607.966 57.492,0 0,-11.864 -57.492,0 0,11.864 z"
         id="path1146" /></clipPath><clipPath
       id="clipPath1150"><path
         d="m 294.917,607.966 57.492,0 0,-11.864 -57.492,0 0,11.864 z"
         id="path1152" /></clipPath><clipPath
       id="clipPath1156"><path
         d="m 356.031,569.638 -65.678,0 0,65.706 65.678,0 0,-65.706 z"
         id="path1158" /></clipPath><clipPath
       id="clipPath1162"><path
         d="m 288.875,592.858 64.875,0 0,19.125 -64.875,0 0,-19.125 z"
         id="path1164" /></clipPath><clipPath
       id="clipPath1194"><path
         d="m 288.811,632.32 63.68901,0 0,19.125 -63.68901,0 0,-19.125 z"
         id="path1196" /></clipPath><clipPath
       id="clipPath1204"><path
         d="m 288.811,641.445 63.68901,0 0,2 -63.68901,0 0,-2 z"
         id="path1206" /></clipPath></defs><g
     transform="matrix(1.25,0,0,-1.25,-101.78501,760.1875)"
     id="g10"><g
       id="g322"><g
         clip-path="url(#clipPath326)"
         id="g324"><path
           d="M 3.96875,0 2.5625,6.0625 0,6.0625 0,8.375 l 2.03125,0 -0.71875,3.03125 1.84375,0 0.5625,-3.03125 2.5625,0 0.53125,3.03125 1.84375,0 L 8,8.375 l 9,0 -0.71875,3.0625 1.84375,0 0.59375,-3.0625 2.5,0 0.5625,3.0625 1.84375,0 -0.65625,-3.0625 26.53125,0 -0.71875,3.0625 1.84375,0 0.5625,-3.0625 2.53125,0 0.5625,3.0625 1.84375,0 -0.65625,-3.0625 9,0 -0.71875,3.0625 1.84375,0 0.5625,-3.0625 2.53125,0 0.5625,3.0625 1.84375,0 -0.65625,-3.0625 1.71875,0 0,-2.3125 -2.21875,0 -1.3125,-6.03125 -2.21875,0 L 65,6.0625 l -10.03125,0 -1.3125,-6.03125 -2.21875,0 -1.40625,6.03125 -27.5625,0 -1.3125,-6.03125 -2.21875,0 L 17.53125,6.0625 7.5,6.0625 6.1875,0 3.96875,0 z m 1.0625,0.875 c 0.1412375,0.795125 0.42125,2.787625 0.5625,3.53125 l 0.3125,1.65625 -1.78125,0 0.3125,-1.65625 C 4.5799875,3.696375 4.87625,1.88875 5,1.09375 L 5.03125,0.875 z M 20,0.90625 C 20.14125,1.7 20.38875,3.695 20.53125,4.4375 l 0.3125,1.625 -1.78125,0 0.34375,-1.625 C 19.548738,3.728625 19.845,1.92 19.96875,1.125 L 20,0.90625 z m 32.5,0 c 0.14125,0.795125 0.39,2.7875 0.53125,3.53125 l 0.3125,1.625 -1.78125,0 0.3125,-1.625 c 0.14125,-0.71 0.43875,-2.51875 0.5625,-3.3125 L 52.5,0.90625 z m 14.96875,0 C 67.61,1.701375 67.89,3.69375 68.03125,4.4375 l 0.3125,1.625 -1.78125,0 0.3125,-1.625 c 0.14125,-0.71 0.43875,-2.51875 0.5625,-3.3125 l 0.03125,-0.21875 z"
           transform="matrix(0.8,0,0,-0.8,81.428008,608.15)"
           id="path330"
           style="fill:#a12172;fill-opacity:1;fill-rule:nonzero;stroke:none" /></g></g></g></svg>