<?xml version="1.0" encoding="UTF-8" standalone="no"?>
<!-- Created with Inkscape (http://www.inkscape.org/) -->

<svg
   xmlns:dc="http://purl.org/dc/elements/1.1/"
   xmlns:cc="http://creativecommons.org/ns#"
   xmlns:rdf="http://www.w3.org/1999/02/22-rdf-syntax-ns#"
   xmlns:svg="http://www.w3.org/2000/svg"
   xmlns="http://www.w3.org/2000/svg"
   xmlns:sodipodi="http://sodipodi.sourceforge.net/DTD/sodipodi-0.dtd"
   xmlns:inkscape="http://www.inkscape.org/namespaces/inkscape"
   width="18"
   height="18"
   id="svg4375"
   version="1.1"
   inkscape:version="0.48.2 r9819"
   sodipodi:docname="droppoint.svg"
   inkscape:export-filename="/Users/sloale/FIMTsvg/beta/droppoint18.png"
   inkscape:export-xdpi="85.330002"
   inkscape:export-ydpi="85.330002">
  <defs
     id="defs4377" />
  <sodipodi:namedview
     id="base"
     pagecolor="#ffffff"
     bordercolor="#666666"
     borderopacity="1.0"
     inkscape:pageopacity="0.0"
     inkscape:pageshadow="2"
     inkscape:zoom="26.333333"
     inkscape:cx="2.7341771"
     inkscape:cy="9.3037783"
     inkscape:document-units="px"
     inkscape:current-layer="layer1"
     showgrid="false"
     fit-margin-top="0"
     fit-margin-left="0"
     fit-margin-right="0"
     fit-margin-bottom="0"
     inkscape:window-width="1440"
     inkscape:window-height="852"
     inkscape:window-x="0"
     inkscape:window-y="0"
     inkscape:window-maximized="1" />
  <metadata
     id="metadata4380">
    <rdf:RDF>
      <cc:Work
         rdf:about="">
        <dc:format>image/svg+xml</dc:format>
        <dc:type
           rdf:resource="http://purl.org/dc/dcmitype/StillImage" />
        <dc:title></dc:title>
      </cc:Work>
    </rdf:RDF>
  </metadata>
  <g
     inkscape:label="Layer 1"
     inkscape:groupmode="layer"
     id="layer1"
     transform="translate(-2.4303799,-1031.666)">
    <path
       sodipodi:type="arc"
       style="fill:#ffffff;fill-opacity:1"
       id="path4383"
       sodipodi:cx="10.253164"
       sodipodi:cy="10.670886"
       sodipodi:rx="7.8987341"
       sodipodi:ry="4.7848101"
       d="m 18.151898,10.670886 c 0,2.642578 -3.536383,4.78481 -7.898734,4.78481 -4.3623501,0 -7.8987338,-2.142232 -7.8987338,-4.78481 0,-2.6425776 3.5363837,-4.78481 7.8987338,-4.78481 4.362351,0 7.898734,2.1422324 7.898734,4.78481 z"
       transform="translate(0,1028.3622)" />
    <path
       sodipodi:type="arc"
       style="fill:#ffffff;fill-opacity:1"
       id="path4385"
       sodipodi:cx="11.126582"
       sodipodi:cy="10.177216"
       sodipodi:rx="6.4556961"
       sodipodi:ry="6.4556961"
       d="m 17.582278,10.177216 c 0,3.565382 -2.890313,6.455696 -6.455696,6.455696 -3.5653824,0 -6.455696,-2.890314 -6.455696,-6.455696 0,-3.5653829 2.8903136,-6.4556965 6.455696,-6.4556965 3.565383,0 6.455696,2.8903136 6.455696,6.4556965 z"
       transform="translate(0,1028.3622)" />
    <path
       sodipodi:type="arc"
       style="fill:#000000;fill-opacity:1;stroke:#ffffff;stroke-opacity:1;stroke-width:0.58227846000000005;stroke-miterlimit:4;stroke-dasharray:none"
       id="path4387"
       sodipodi:cx="12.911392"
       sodipodi:cy="10.822784"
       sodipodi:rx="10.481012"
       sodipodi:ry="10.481012"
       d="m 23.392405,10.822784 c 0,5.788504 -4.69251,10.481013 -10.481013,10.481013 -5.7885031,0 -10.4810121,-4.692509 -10.4810121,-10.481013 0,-5.7885029 4.692509,-10.48101192 10.4810121,-10.48101192 5.788503,0 10.481013,4.69250902 10.481013,10.48101192 z"
       transform="matrix(0.85869568,0,0,0.85869568,0.34342318,1031.3725)" />
  </g>
</svg>
