<?xml version="1.0" encoding="UTF-8" standalone="no"?>
<!-- Created with Inkscape (http://www.inkscape.org/) -->

<svg
   xmlns:dc="http://purl.org/dc/elements/1.1/"
   xmlns:cc="http://creativecommons.org/ns#"
   xmlns:rdf="http://www.w3.org/1999/02/22-rdf-syntax-ns#"
   xmlns:svg="http://www.w3.org/2000/svg"
   xmlns="http://www.w3.org/2000/svg"
   xmlns:sodipodi="http://sodipodi.sourceforge.net/DTD/sodipodi-0.dtd"
   xmlns:inkscape="http://www.inkscape.org/namespaces/inkscape"
   id="svg5111"
   version="1.1"
   inkscape:version="0.48.2 r9819"
   width="34.581261"
   height="29.279381"
   xml:space="preserve"
   sodipodi:docname="points.pdf"><metadata
     id="metadata5117"><rdf:RDF><cc:Work
         rdf:about=""><dc:format>image/svg+xml</dc:format><dc:type
           rdf:resource="http://purl.org/dc/dcmitype/StillImage" /><dc:title></dc:title></cc:Work></rdf:RDF></metadata><defs
     id="defs5115"><clipPath
       clipPathUnits="userSpaceOnUse"
       id="clipPath5127"><path
         d="m -1224,864 1836,0 0,-936 -1836,0 0,936 z"
         id="path5129"
         inkscape:connector-curvature="0" /></clipPath><clipPath
       clipPathUnits="userSpaceOnUse"
       id="clipPath5133"><path
         d="m 18.14,14.16998 575.72,0 0,763.66 -575.72,0 0,-763.66 z"
         id="path5135"
         inkscape:connector-curvature="0" /></clipPath><clipPath
       clipPathUnits="userSpaceOnUse"
       id="clipPath5167"><path
         d="m -1224,864 1836,0 0,-936 -1836,0 0,936 z"
         id="path5169"
         inkscape:connector-curvature="0" /></clipPath><clipPath
       clipPathUnits="userSpaceOnUse"
       id="clipPath5173"><path
         d="m -9.086342,278.7727 86.413102,0 0,77.1963 -86.413102,0 0,-77.1963 z"
         id="path5175"
         inkscape:connector-curvature="0" /></clipPath><clipPath
       clipPathUnits="userSpaceOnUse"
       id="clipPath5179"><path
         d="m 18.14,279.696 58.27299,0 0,76.272 -58.27299,0 0,-76.272 z"
         id="path5181"
         inkscape:connector-curvature="0" /></clipPath><clipPath
       clipPathUnits="userSpaceOnUse"
       id="clipPath5191"><path
         d="m -1224,864 1836,0 0,-936 -1836,0 0,936 z"
         id="path5193"
         inkscape:connector-curvature="0" /></clipPath><clipPath
       clipPathUnits="userSpaceOnUse"
       id="clipPath5197"><path
         d="m 18.14,14.16998 575.72,0 0,763.66 -575.72,0 0,-763.66 z"
         id="path5199"
         inkscape:connector-curvature="0" /></clipPath><clipPath
       clipPathUnits="userSpaceOnUse"
       id="clipPath5203"><path
         d="m 18,70 19,0 0,207 -19,0 0,-207 z"
         id="path5205"
         inkscape:connector-curvature="0" /></clipPath><clipPath
       clipPathUnits="userSpaceOnUse"
       id="clipPath5207"><path
         d="m 18,14 36.8977,0 0,273.795 L 18,287.795 18,14 z"
         id="path5209"
         inkscape:connector-curvature="0" /></clipPath><clipPath
       clipPathUnits="userSpaceOnUse"
       id="clipPath5229"><path
         d="m -1224,864 1836,0 0,-936 -1836,0 0,936 z"
         id="path5231"
         inkscape:connector-curvature="0" /></clipPath><clipPath
       clipPathUnits="userSpaceOnUse"
       id="clipPath5235"><path
         d="m 18.14,14.16998 575.72,0 0,763.66 -575.72,0 0,-763.66 z"
         id="path5237"
         inkscape:connector-curvature="0" /></clipPath><clipPath
       clipPathUnits="userSpaceOnUse"
       id="clipPath5241"><path
         d="m 30,681 24,0 0,26 -24,0 0,-26 z"
         id="path5243"
         inkscape:connector-curvature="0" /></clipPath><clipPath
       clipPathUnits="userSpaceOnUse"
       id="clipPath5245"><path
         d="m 18,680.793 59.7438,0 0,26.17999 -59.7438,0 0,-26.17999 z"
         id="path5247"
         inkscape:connector-curvature="0" /></clipPath><clipPath
       clipPathUnits="userSpaceOnUse"
       id="clipPath5269"><path
         d="m 612,864 1836,0 0,-936 -1836,0 0,936 z"
         id="path5271"
         inkscape:connector-curvature="0" /></clipPath><clipPath
       clipPathUnits="userSpaceOnUse"
       id="clipPath5275"><path
         d="m 18.14,14.16998 575.72,0 0,763.66 -575.72,0 0,-763.66 z"
         id="path5277"
         inkscape:connector-curvature="0" /></clipPath><clipPath
       clipPathUnits="userSpaceOnUse"
       id="clipPath5293"><path
         d="m 18.14,14.16998 575.72,0 0,763.66 -575.72,0 0,-763.66 z"
         id="path5295"
         inkscape:connector-curvature="0" /></clipPath><clipPath
       clipPathUnits="userSpaceOnUse"
       id="clipPath5475"><path
         d="m 123.773,672.182 38.305,0 0,-41.636 -38.305,0 0,41.636 z"
         id="path5477"
         inkscape:connector-curvature="0" /></clipPath><clipPath
       clipPathUnits="userSpaceOnUse"
       id="clipPath5481"><path
         d="m 123.773,672.182 38.305,0 0,-41.636 -38.305,0 0,41.636 z"
         id="path5483"
         inkscape:connector-curvature="0" /></clipPath><clipPath
       clipPathUnits="userSpaceOnUse"
       id="clipPath5487"><path
         d="m 170.38,612.225 -59.931,0 0,59.9561 59.931,0 0,-59.9561 z"
         clip-rule="evenodd"
         id="path5489"
         inkscape:connector-curvature="0" /></clipPath><clipPath
       clipPathUnits="userSpaceOnUse"
       id="clipPath5493"><path
         d="m 125.347,636 28.25301,0 0,21.375 -28.25301,0 0,-21.375 z"
         id="path5495"
         inkscape:connector-curvature="0" /></clipPath><clipPath
       clipPathUnits="userSpaceOnUse"
       id="clipPath5509"><path
         d="m 131.875,614.875 16.865,0 0,-16.866 -16.865,0 0,16.866 z"
         id="path5511"
         inkscape:connector-curvature="0" /></clipPath><clipPath
       clipPathUnits="userSpaceOnUse"
       id="clipPath5515"><path
         d="m 131.875,614.875 16.865,0 0,-16.866 -16.865,0 0,16.866 z"
         id="path5517"
         inkscape:connector-curvature="0" /></clipPath><clipPath
       clipPathUnits="userSpaceOnUse"
       id="clipPath5521"><path
         d="m 174.884,569.945 -71.969,0 0,72 71.969,0 0,-72 z"
         clip-rule="evenodd"
         id="path5523"
         inkscape:connector-curvature="0" /></clipPath><clipPath
       clipPathUnits="userSpaceOnUse"
       id="clipPath5527"><path
         d="m 124.875,596.75 28.72501,0 0,19.125 -28.72501,0 0,-19.125 z"
         id="path5529"
         inkscape:connector-curvature="0" /></clipPath><clipPath
       clipPathUnits="userSpaceOnUse"
       id="clipPath5559"><path
         d="m 145.345,560.859 0,-0.991 -3.797,0 0,15.683 3.797,0 0,-0.825 -2.311,0 0,-13.867 2.311,0 z m -12.546,-0.1659 c 0.589,0.2209 1.637,0.1729 2.476,0.1659 l 0,13.867 -2.311,0 c -0.1,0.264 -0.145,0.392 -0.165,0.825 l 3.962,0 0,-15.683 -3.797,0 c -0.1,0.2651 -0.145,0.392 -0.165,0.8251"
         clip-rule="evenodd"
         id="path5561"
         inkscape:connector-curvature="0" /></clipPath><clipPath
       clipPathUnits="userSpaceOnUse"
       id="clipPath5565"><path
         d="m 124.875,558.375 28.72501,0 0,19.125 -28.72501,0 0,-19.125 z"
         id="path5567"
         inkscape:connector-curvature="0" /></clipPath><clipPath
       clipPathUnits="userSpaceOnUse"
       id="clipPath5577"><path
         d="m 144.794,493.547 -0.264,0 c -0.263,-0.308 -0.527,-0.616 -0.791,-0.923 -0.132,-0.088 -0.264,-0.176 -0.396,-0.264 -1.057,-1.572 -1.816,-6.036 -1.055,-8.575 0.044,-0.396 0.088,-0.791 0.132,-1.187 0.308,-0.704 0.615,-1.407 0.923,-2.111 0.132,-0.088 0.264,-0.176 0.396,-0.264 0.264,-0.307 0.528,-0.615 0.791,-0.923 l 0.264,0 0,-0.132 c 0.196,-0.182 0.171,-0.068 0.264,-0.396 l -0.396,0 c -0.287,0.429 -0.765,0.492 -1.187,0.792 -0.088,0.132 -0.176,0.264 -0.264,0.396 -0.351,0.307 -0.703,0.615 -1.055,0.923 l 0,0.264 c -0.132,0.088 -0.264,0.176 -0.396,0.264 -0.044,0.176 -0.088,0.351 -0.132,0.527 -0.088,0.044 -0.176,0.088 -0.264,0.132 l 0,0.264 -0.131,0 0,0.264 -0.132,0 0,0.396 -0.132,0 0,0.264 -0.132,0 c -0.044,0.307 -0.088,0.615 -0.132,0.923 l -0.132,0 0,0.528 -0.132,0 0,1.055 c -0.296,1.064 0.066,2.567 0.396,3.43 l 0,0.395 0.132,0 0,0.264 0.132,0 0,0.396 0.132,0 0,0.264 0.131,0 0,0.264 c 0.088,0.044 0.176,0.088 0.264,0.132 0.044,0.175 0.088,0.351 0.132,0.527 0.132,0.088 0.264,0.176 0.396,0.264 l 0,0.264 c 0.22,0.176 0.44,0.352 0.66,0.528 0.219,0.263 0.439,0.527 0.659,0.791 l 0.264,0 0.132,0.264 0.264,0 c 0.044,0.088 0.088,0.176 0.132,0.264 l 0.263,0 0,0.132 c 0.18,0.12 0.232,0.095 0.528,0.132 -0.093,-0.328 -0.068,-0.214 -0.264,-0.396 l 0,-0.132 z m -8.179,-8.97 -0.131,0 c -0.044,-0.352 -0.088,-0.704 -0.132,-1.056 l -0.132,0 0,-0.263 -0.132,0 0,-0.396 -0.132,0 c -0.088,-0.264 -0.176,-0.528 -0.264,-0.792 l -0.132,0 0,-0.264 -0.132,0 c -0.044,-0.131 -0.088,-0.263 -0.132,-0.395 -0.088,-0.044 -0.176,-0.088 -0.264,-0.132 l 0,-0.264 c -0.263,-0.22 -0.527,-0.44 -0.791,-0.66 -0.562,-0.562 -1.256,-1.48 -2.243,-1.583 0.191,0.666 0.475,0.47 0.924,0.792 0.088,0.132 0.176,0.264 0.264,0.396 l 0.132,0 0,0.263 c 0.131,0.088 0.263,0.176 0.395,0.264 l 0,0.264 c 0.088,0.044 0.176,0.088 0.264,0.132 0.981,1.551 1.498,5.968 0.792,8.311 -0.044,0.395 -0.088,0.791 -0.132,1.187 l -0.132,0 c -0.044,0.264 -0.088,0.528 -0.132,0.791 l -0.132,0 c -0.044,0.176 -0.088,0.352 -0.132,0.528 l -0.132,0 0,0.264 c -0.088,0.044 -0.176,0.088 -0.264,0.132 l 0,0.264 c -0.132,0.088 -0.264,0.176 -0.395,0.264 l 0,0.263 -0.132,0 c -0.088,0.132 -0.176,0.264 -0.264,0.396 -0.449,0.322 -0.734,0.127 -0.924,0.792 l 0.396,0 0,-0.132 c 0.717,-0.176 1.258,-0.863 1.715,-1.319 0.308,-0.264 0.616,-0.528 0.923,-0.792 l 0,-0.264 c 0.088,-0.044 0.176,-0.088 0.264,-0.132 0.044,-0.132 0.088,-0.264 0.132,-0.395 l 0.132,0 c 0.044,-0.176 0.088,-0.352 0.132,-0.528 l 0.132,0 c 0.044,-0.176 0.088,-0.352 0.132,-0.528 l 0.132,0 0,-0.396 0.132,0 0,-0.263 0.132,0 c 0.044,-0.352 0.088,-0.704 0.132,-1.056 l 0.131,0 0,-0.923 0.132,0 0,-1.847 -0.132,0 0,-0.923 z"
         clip-rule="evenodd"
         id="path5579"
         inkscape:connector-curvature="0" /></clipPath><clipPath
       clipPathUnits="userSpaceOnUse"
       id="clipPath5583"><path
         d="m 124.875,473.1 28.62601,0 0,27.438 -28.62601,0 0,-27.438 z"
         id="path5585"
         inkscape:connector-curvature="0" /></clipPath><clipPath
       clipPathUnits="userSpaceOnUse"
       id="clipPath5595"><path
         d="m 133.28,144.697 12.48,0 0,-12.48 -12.48,0 0,12.48 z"
         clip-rule="evenodd"
         id="path5597"
         inkscape:connector-curvature="0" /></clipPath><clipPath
       clipPathUnits="userSpaceOnUse"
       id="clipPath5601"><path
         d="m 127.594,124.025 23.617,0 0,24.619 -23.617,0 0,-24.619 z"
         id="path5603"
         inkscape:connector-curvature="0" /></clipPath><clipPath
       clipPathUnits="userSpaceOnUse"
       id="clipPath5613"><path
         d="m 18.14,14.16998 575.72,0 0,763.66 -575.72,0 0,-763.66 z"
         id="path5615"
         inkscape:connector-curvature="0" /></clipPath><clipPath
       clipPathUnits="userSpaceOnUse"
       id="clipPath5785"><path
         d="m 342.851,651.269 12.48,0 c 0.381,-1.04 0.24,-2.901 0.24,-4.32 l 0,-8.4 -12.72,0 0,12.72 z"
         clip-rule="evenodd"
         id="path5787"
         inkscape:connector-curvature="0" /></clipPath><clipPath
       clipPathUnits="userSpaceOnUse"
       id="clipPath5791"><path
         d="m 341.518,636.9 14.79601,0 0,14.47501 -14.79601,0 0,-14.47501 z"
         id="path5793"
         inkscape:connector-curvature="0" /></clipPath><clipPath
       clipPathUnits="userSpaceOnUse"
       id="clipPath5803"><path
         d="m 335.125,594.4 28.72501,0 0,26.10001 -28.72501,0 0,-26.10001 z"
         id="path5805"
         inkscape:connector-curvature="0" /></clipPath><clipPath
       clipPathUnits="userSpaceOnUse"
       id="clipPath5813"><path
         d="m 335.125,439.05 28.72501,0 0,24.267 -28.72501,0 0,-24.267 z"
         id="path5815"
         inkscape:connector-curvature="0" /></clipPath><clipPath
       clipPathUnits="userSpaceOnUse"
       id="clipPath5827"><path
         d="m 325.875,403.115 47.25,0 0,19.125 -47.25,0 0,-19.125 z"
         id="path5829"
         inkscape:connector-curvature="0" /></clipPath><clipPath
       clipPathUnits="userSpaceOnUse"
       id="clipPath5839"><path
         d="m 335.125,362.962 28.72501,0 0,19.125 -28.72501,0 0,-19.125 z"
         id="path5841"
         inkscape:connector-curvature="0" /></clipPath><clipPath
       clipPathUnits="userSpaceOnUse"
       id="clipPath5849"><path
         d="m 335.125,207.625 28.72501,0 0,19.125 -28.72501,0 0,-19.125 z"
         id="path5851"
         inkscape:connector-curvature="0" /></clipPath><clipPath
       clipPathUnits="userSpaceOnUse"
       id="clipPath5859"><path
         d="m 335.125,153.731 28.72501,0 0,25.108 -28.72501,0 0,-25.108 z"
         id="path5861"
         inkscape:connector-curvature="0" /></clipPath><clipPath
       clipPathUnits="userSpaceOnUse"
       id="clipPath5869"><path
         d="m 18.14,14.16998 575.72,0 0,763.66 -575.72,0 0,-763.66 z"
         id="path5871"
         inkscape:connector-curvature="0" /></clipPath><clipPath
       clipPathUnits="userSpaceOnUse"
       id="clipPath5889"><path
         d="m 139.606,517.173 c 5.443,0 9.856,4.413 9.856,9.8561 0,5.443 -4.413,9.8559 -9.856,9.8559 -5.443,0 -9.856,-4.4129 -9.856,-9.8559 0,-5.4431 4.413,-9.8561 9.856,-9.8561"
         id="path5891"
         inkscape:connector-curvature="0" /></clipPath><clipPath
       clipPathUnits="userSpaceOnUse"
       id="clipPath5895"><path
         d="m 125.25,548 53.25,0 0,-47.832 -53.25,0 0,47.832 z"
         id="path5897"
         inkscape:connector-curvature="0" /></clipPath><clipPath
       clipPathUnits="userSpaceOnUse"
       id="clipPath5901"><path
         d="m 125.25,548 53.25,0 0,-47.832 -53.25,0 0,47.832 z"
         id="path5903"
         inkscape:connector-curvature="0" /></clipPath><clipPath
       clipPathUnits="userSpaceOnUse"
       id="clipPath5907"><path
         d="m 200.655,466.003 -122.943,0 0,122.996 122.943,0 0,-122.996 z"
         clip-rule="evenodd"
         id="path5909"
         inkscape:connector-curvature="0" /></clipPath><clipPath
       clipPathUnits="userSpaceOnUse"
       id="clipPath5913"><path
         d="m 18.14,14.16998 575.72,0 0,763.66 -575.72,0 0,-763.66 z"
         id="path5915"
         inkscape:connector-curvature="0" /></clipPath><clipPath
       clipPathUnits="userSpaceOnUse"
       id="clipPath5931"><path
         d="m 18.14,14.16998 575.72,0 0,763.66 -575.72,0 0,-763.66 z"
         id="path5933"
         inkscape:connector-curvature="0" /></clipPath><clipPath
       clipPathUnits="userSpaceOnUse"
       id="clipPath5947"><path
         d="m 139.237,366.379 c 5.444,0 9.856,4.413 9.856,9.856 0,5.443 -4.412,9.856 -9.856,9.856 -5.443,0 -9.855,-4.413 -9.855,-9.856 0,-5.443 4.412,-9.856 9.855,-9.856"
         id="path5949"
         inkscape:connector-curvature="0" /></clipPath><clipPath
       clipPathUnits="userSpaceOnUse"
       id="clipPath5953"><path
         d="m 125.1,396.582 53.25,0 0,-47.832 -53.25,0 0,47.832 z"
         id="path5955"
         inkscape:connector-curvature="0" /></clipPath><clipPath
       clipPathUnits="userSpaceOnUse"
       id="clipPath5959"><path
         d="m 125.1,396.582 53.25,0 0,-47.832 -53.25,0 0,47.832 z"
         id="path5961"
         inkscape:connector-curvature="0" /></clipPath><clipPath
       clipPathUnits="userSpaceOnUse"
       id="clipPath5965"><path
         d="m 200.505,314.585 -122.94301,0 0,122.996 122.94301,0 0,-122.996 z"
         clip-rule="evenodd"
         id="path5967"
         inkscape:connector-curvature="0" /></clipPath><clipPath
       clipPathUnits="userSpaceOnUse"
       id="clipPath5971"><path
         d="m 18.14,14.16998 575.72,0 0,763.66 -575.72,0 0,-763.66 z"
         id="path5973"
         inkscape:connector-curvature="0" /></clipPath><clipPath
       clipPathUnits="userSpaceOnUse"
       id="clipPath5989"><path
         d="m 18.14,14.16998 575.72,0 0,763.66 -575.72,0 0,-763.66 z"
         id="path5991"
         inkscape:connector-curvature="0" /></clipPath><clipPath
       clipPathUnits="userSpaceOnUse"
       id="clipPath6003"><path
         d="m 139.244,324.5 c 5.443,0 9.856,4.413 9.856,9.856 0,5.443 -4.413,9.856 -9.856,9.856 -5.443,0 -9.856,-4.413 -9.856,-9.856 0,-5.443 4.413,-9.856 9.856,-9.856"
         id="path6005"
         inkscape:connector-curvature="0" /></clipPath><clipPath
       clipPathUnits="userSpaceOnUse"
       id="clipPath6009"><path
         d="m 142.353,330.642 0,-4.747 c -1.419,-0.528 -4.031,-0.311 -5.934,-0.297 l 0,5.044 -4.747,0 0,6.23 4.747,0 0,4.747 5.934,0 0,-4.747 4.45,0 c 0.554,-1.492 0.311,-4.247 0.297,-6.23 l -4.747,0 z m 3.56,5.044 -4.747,0 0,4.746 -3.56,0 0,-4.746 -4.747,0 0,-3.857 4.747,0 0,-5.044 3.56,0 0,5.044 4.747,0 0,3.857 z"
         clip-rule="evenodd"
         id="path6011"
         inkscape:connector-curvature="0" /></clipPath><clipPath
       clipPathUnits="userSpaceOnUse"
       id="clipPath6015"><path
         d="m 111.498,304.238 55.479,0 0,56.96201 -55.479,0 0,-56.96201 z"
         id="path6017"
         inkscape:connector-curvature="0" /></clipPath><clipPath
       clipPathUnits="userSpaceOnUse"
       id="clipPath6027"><path
         d="m 139.237,285.788 c 5.444,0 9.856,4.413 9.856,9.856 0,5.443 -4.412,9.856 -9.856,9.856 -5.443,0 -9.855,-4.413 -9.855,-9.856 0,-5.443 4.412,-9.856 9.855,-9.856"
         id="path6029"
         inkscape:connector-curvature="0" /></clipPath><clipPath
       clipPathUnits="userSpaceOnUse"
       id="clipPath6033"><path
         d="m 124.875,316.294 53.25,0 0,-47.832 -53.25,0 0,47.832 z"
         id="path6035"
         inkscape:connector-curvature="0" /></clipPath><clipPath
       clipPathUnits="userSpaceOnUse"
       id="clipPath6039"><path
         d="m 124.875,316.294 53.25,0 0,-47.832 -53.25,0 0,47.832 z"
         id="path6041"
         inkscape:connector-curvature="0" /></clipPath><clipPath
       clipPathUnits="userSpaceOnUse"
       id="clipPath6045"><path
         d="m 200.28,234.297 -122.94301,0 0,122.996 122.94301,0 0,-122.996 z"
         clip-rule="evenodd"
         id="path6047"
         inkscape:connector-curvature="0" /></clipPath><clipPath
       clipPathUnits="userSpaceOnUse"
       id="clipPath6051"><path
         d="m 18.14,14.16998 575.72,0 0,763.66 -575.72,0 0,-763.66 z"
         id="path6053"
         inkscape:connector-curvature="0" /></clipPath><clipPath
       clipPathUnits="userSpaceOnUse"
       id="clipPath6069"><path
         d="m 18.14,14.16998 575.72,0 0,763.66 -575.72,0 0,-763.66 z"
         id="path6071"
         inkscape:connector-curvature="0" /></clipPath><clipPath
       clipPathUnits="userSpaceOnUse"
       id="clipPath6079"><path
         d="m 139.394,166.538 c 5.443,0 9.856,4.413 9.856,9.856 0,5.443 -4.413,9.856 -9.856,9.856 -5.443,0 -9.856,-4.413 -9.856,-9.856 0,-5.443 4.413,-9.856 9.856,-9.856"
         id="path6081"
         inkscape:connector-curvature="0" /></clipPath><clipPath
       clipPathUnits="userSpaceOnUse"
       id="clipPath6085"><path
         d="m 124.875,196.674 53.25,0 0,-47.832 -53.25,0 0,47.832 z"
         id="path6087"
         inkscape:connector-curvature="0" /></clipPath><clipPath
       clipPathUnits="userSpaceOnUse"
       id="clipPath6091"><path
         d="m 124.875,196.674 53.25,0 0,-47.832 -53.25,0 0,47.832 z"
         id="path6093"
         inkscape:connector-curvature="0" /></clipPath><clipPath
       clipPathUnits="userSpaceOnUse"
       id="clipPath6097"><path
         d="m 200.28,114.677 -122.94301,0 0,122.996 122.94301,0 0,-122.996 z"
         clip-rule="evenodd"
         id="path6099"
         inkscape:connector-curvature="0" /></clipPath><clipPath
       clipPathUnits="userSpaceOnUse"
       id="clipPath6103"><path
         d="m 18.14,14.16998 575.72,0 0,763.66 -575.72,0 0,-763.66 z"
         id="path6105"
         inkscape:connector-curvature="0" /></clipPath><clipPath
       clipPathUnits="userSpaceOnUse"
       id="clipPath6121"><path
         d="m 18.14,14.16998 575.72,0 0,763.66 -575.72,0 0,-763.66 z"
         id="path6123"
         inkscape:connector-curvature="0" /></clipPath><clipPath
       clipPathUnits="userSpaceOnUse"
       id="clipPath6131"><path
         d="m 349.594,559.47 c 5.443,0 9.856,4.4131 9.856,9.8561 0,5.4429 -4.413,9.8559 -9.856,9.8559 -5.443,0 -9.856,-4.413 -9.856,-9.8559 0,-5.443 4.413,-9.8561 9.856,-9.8561"
         id="path6133"
         inkscape:connector-curvature="0" /></clipPath><clipPath
       clipPathUnits="userSpaceOnUse"
       id="clipPath6137"><path
         d="m 332.438,599.625 71.747,0 0,-68.331 -71.747,0 0,68.331 z"
         id="path6139"
         inkscape:connector-curvature="0" /></clipPath><clipPath
       clipPathUnits="userSpaceOnUse"
       id="clipPath6143"><path
         d="m 332.438,599.625 71.747,0 0,-68.331 -71.747,0 0,68.331 z"
         id="path6145"
         inkscape:connector-curvature="0" /></clipPath><clipPath
       clipPathUnits="userSpaceOnUse"
       id="clipPath6149"><path
         d="m 410.966,507.378 -122.943,0 0,122.996 122.943,0 0,-122.996 z"
         clip-rule="evenodd"
         id="path6151"
         inkscape:connector-curvature="0" /></clipPath><clipPath
       clipPathUnits="userSpaceOnUse"
       id="clipPath6155"><path
         d="m 18.14,14.16998 575.72,0 0,763.66 -575.72,0 0,-763.66 z"
         id="path6157"
         inkscape:connector-curvature="0" /></clipPath><clipPath
       clipPathUnits="userSpaceOnUse"
       id="clipPath6175"><path
         d="m 18.14,14.16998 575.72,0 0,763.66 -575.72,0 0,-763.66 z"
         id="path6177"
         inkscape:connector-curvature="0" /></clipPath><clipPath
       clipPathUnits="userSpaceOnUse"
       id="clipPath6185"><path
         d="m 349.594,521.288 c 5.443,0 9.856,4.4131 9.856,9.856 0,5.443 -4.413,9.856 -9.856,9.856 -5.443,0 -9.856,-4.413 -9.856,-9.856 0,-5.4429 4.413,-9.856 9.856,-9.856"
         id="path6187"
         inkscape:connector-curvature="0" /></clipPath><clipPath
       clipPathUnits="userSpaceOnUse"
       id="clipPath6191"><path
         d="m 335.625,551.325 53.25,0 0,-47.832 -53.25,0 0,47.832 z"
         id="path6193"
         inkscape:connector-curvature="0" /></clipPath><clipPath
       clipPathUnits="userSpaceOnUse"
       id="clipPath6197"><path
         d="m 335.625,551.325 53.25,0 0,-47.832 -53.25,0 0,47.832 z"
         id="path6199"
         inkscape:connector-curvature="0" /></clipPath><clipPath
       clipPathUnits="userSpaceOnUse"
       id="clipPath6203"><path
         d="m 411.03,469.328 -122.943,0 0,122.996 122.943,0 0,-122.996 z"
         clip-rule="evenodd"
         id="path6205"
         inkscape:connector-curvature="0" /></clipPath><clipPath
       clipPathUnits="userSpaceOnUse"
       id="clipPath6209"><path
         d="m 18.14,14.16998 575.72,0 0,763.66 -575.72,0 0,-763.66 z"
         id="path6211"
         inkscape:connector-curvature="0" /></clipPath><clipPath
       clipPathUnits="userSpaceOnUse"
       id="clipPath6227"><path
         d="m 18.14,14.16998 575.72,0 0,763.66 -575.72,0 0,-763.66 z"
         id="path6229"
         inkscape:connector-curvature="0" /></clipPath><clipPath
       clipPathUnits="userSpaceOnUse"
       id="clipPath6237"><path
         d="m 349.594,478.726 c 5.443,0 9.856,4.413 9.856,9.856 0,5.443 -4.413,9.856 -9.856,9.856 -5.443,0 -9.856,-4.413 -9.856,-9.856 0,-5.443 4.413,-9.856 9.856,-9.856"
         id="path6239"
         inkscape:connector-curvature="0" /></clipPath><clipPath
       clipPathUnits="userSpaceOnUse"
       id="clipPath6243"><path
         d="m 335.371,508.862 53.25,0 0,-47.832 -53.25,0 0,47.832 z"
         id="path6245"
         inkscape:connector-curvature="0" /></clipPath><clipPath
       clipPathUnits="userSpaceOnUse"
       id="clipPath6249"><path
         d="m 335.371,508.862 53.25,0 0,-47.832 -53.25,0 0,47.832 z"
         id="path6251"
         inkscape:connector-curvature="0" /></clipPath><clipPath
       clipPathUnits="userSpaceOnUse"
       id="clipPath6255"><path
         d="m 410.776,426.865 -122.943,0 0,122.996 122.943,0 0,-122.996 z"
         clip-rule="evenodd"
         id="path6257"
         inkscape:connector-curvature="0" /></clipPath><clipPath
       clipPathUnits="userSpaceOnUse"
       id="clipPath6261"><path
         d="m 18.14,14.16998 575.72,0 0,763.66 -575.72,0 0,-763.66 z"
         id="path6263"
         inkscape:connector-curvature="0" /></clipPath><clipPath
       clipPathUnits="userSpaceOnUse"
       id="clipPath6279"><path
         d="m 18.14,14.16998 575.72,0 0,763.66 -575.72,0 0,-763.66 z"
         id="path6281"
         inkscape:connector-curvature="0" /></clipPath><clipPath
       clipPathUnits="userSpaceOnUse"
       id="clipPath6289"><path
         d="m 349.594,324.5 c 5.443,0 9.856,4.413 9.856,9.856 0,5.443 -4.413,9.856 -9.856,9.856 -5.443,0 -9.856,-4.413 -9.856,-9.856 0,-5.443 4.413,-9.856 9.856,-9.856"
         id="path6291"
         inkscape:connector-curvature="0" /></clipPath><clipPath
       clipPathUnits="userSpaceOnUse"
       id="clipPath6295"><path
         d="m 335.063,354.784 53.25,0 0,-47.832 -53.25,0 0,47.832 z"
         id="path6297"
         inkscape:connector-curvature="0" /></clipPath><clipPath
       clipPathUnits="userSpaceOnUse"
       id="clipPath6301"><path
         d="m 335.063,354.784 53.25,0 0,-47.832 -53.25,0 0,47.832 z"
         id="path6303"
         inkscape:connector-curvature="0" /></clipPath><clipPath
       clipPathUnits="userSpaceOnUse"
       id="clipPath6307"><path
         d="m 410.468,272.787 -122.943,0 0,122.996 122.943,0 0,-122.996 z"
         clip-rule="evenodd"
         id="path6309"
         inkscape:connector-curvature="0" /></clipPath><clipPath
       clipPathUnits="userSpaceOnUse"
       id="clipPath6313"><path
         d="m 18.14,14.16998 575.72,0 0,763.66 -575.72,0 0,-763.66 z"
         id="path6315"
         inkscape:connector-curvature="0" /></clipPath><clipPath
       clipPathUnits="userSpaceOnUse"
       id="clipPath6331"><path
         d="m 18.14,14.16998 575.72,0 0,763.66 -575.72,0 0,-763.66 z"
         id="path6333"
         inkscape:connector-curvature="0" /></clipPath><clipPath
       clipPathUnits="userSpaceOnUse"
       id="clipPath6341"><path
         d="m 349.594,285.601 c 5.443,0 9.856,4.413 9.856,9.856 0,5.443 -4.413,9.856 -9.856,9.856 -5.443,0 -9.856,-4.413 -9.856,-9.856 0,-5.443 4.413,-9.856 9.856,-9.856"
         id="path6343"
         inkscape:connector-curvature="0" /></clipPath><clipPath
       clipPathUnits="userSpaceOnUse"
       id="clipPath6347"><path
         d="m 335.625,315.511 53.25,0 0,-47.832 -53.25,0 0,47.832 z"
         id="path6349"
         inkscape:connector-curvature="0" /></clipPath><clipPath
       clipPathUnits="userSpaceOnUse"
       id="clipPath6353"><path
         d="m 335.625,315.511 53.25,0 0,-47.832 -53.25,0 0,47.832 z"
         id="path6355"
         inkscape:connector-curvature="0" /></clipPath><clipPath
       clipPathUnits="userSpaceOnUse"
       id="clipPath6359"><path
         d="m 411.03,233.514 -122.943,0 0,122.996 122.943,0 0,-122.996 z"
         clip-rule="evenodd"
         id="path6361"
         inkscape:connector-curvature="0" /></clipPath><clipPath
       clipPathUnits="userSpaceOnUse"
       id="clipPath6365"><path
         d="m 18.14,14.16998 575.72,0 0,763.66 -575.72,0 0,-763.66 z"
         id="path6367"
         inkscape:connector-curvature="0" /></clipPath><clipPath
       clipPathUnits="userSpaceOnUse"
       id="clipPath6383"><path
         d="m 18.14,14.16998 575.72,0 0,763.66 -575.72,0 0,-763.66 z"
         id="path6385"
         inkscape:connector-curvature="0" /></clipPath><clipPath
       clipPathUnits="userSpaceOnUse"
       id="clipPath6393"><path
         d="m 349.594,247.845 c 5.443,0 9.856,4.413 9.856,9.856 0,5.443 -4.413,9.856 -9.856,9.856 -5.443,0 -9.856,-4.413 -9.856,-9.856 0,-5.443 4.413,-9.856 9.856,-9.856"
         id="path6395"
         inkscape:connector-curvature="0" /></clipPath><clipPath
       clipPathUnits="userSpaceOnUse"
       id="clipPath6399"><path
         d="m 335.438,277.875 53.25,0 0,-47.832 -53.25,0 0,47.832 z"
         id="path6401"
         inkscape:connector-curvature="0" /></clipPath><clipPath
       clipPathUnits="userSpaceOnUse"
       id="clipPath6405"><path
         d="m 335.438,277.875 53.25,0 0,-47.832 -53.25,0 0,47.832 z"
         id="path6407"
         inkscape:connector-curvature="0" /></clipPath><clipPath
       clipPathUnits="userSpaceOnUse"
       id="clipPath6411"><path
         d="m 410.843,195.878 -122.943,0 0,122.996 122.943,0 0,-122.996 z"
         clip-rule="evenodd"
         id="path6413"
         inkscape:connector-curvature="0" /></clipPath><clipPath
       clipPathUnits="userSpaceOnUse"
       id="clipPath6417"><path
         d="m 18.14,14.16998 575.72,0 0,763.66 -575.72,0 0,-763.66 z"
         id="path6419"
         inkscape:connector-curvature="0" /></clipPath><clipPath
       clipPathUnits="userSpaceOnUse"
       id="clipPath6435"><path
         d="m 18.14,14.16998 575.72,0 0,763.66 -575.72,0 0,-763.66 z"
         id="path6437"
         inkscape:connector-curvature="0" /></clipPath></defs><sodipodi:namedview
     pagecolor="#ffffff"
     bordercolor="#666666"
     borderopacity="1"
     objecttolerance="10"
     gridtolerance="10"
     guidetolerance="10"
     inkscape:pageopacity="0"
     inkscape:pageshadow="2"
     inkscape:window-width="1440"
     inkscape:window-height="852"
     id="namedview5113"
     showgrid="false"
     fit-margin-top="0"
     fit-margin-left="0"
     fit-margin-right="0"
     fit-margin-bottom="0"
     inkscape:zoom="15.26301"
     inkscape:cx="17.29063"
     inkscape:cy="14.63969"
     inkscape:window-x="0"
     inkscape:window-y="0"
     inkscape:window-maximized="1"
     inkscape:current-layer="g5119" /><g
     id="g5119"
     inkscape:groupmode="layer"
     inkscape:label="points"
     transform="matrix(1.25,0,0,-1.25,-419.73937,578.09188)"><g
       id="g5809"><g
         id="g5811"
         clip-path="url(#clipPath5813)"><path
           d="m 349.724,461.598 -13.057,-21.897 25.914,0 -12.857,21.897 z"
           style="fill:#f7d32d;fill-opacity:1;fill-rule:nonzero;stroke:none"
           id="path5817"
           inkscape:connector-curvature="0" /><path
           d="m 349.724,461.598 -13.057,-21.897 25.914,0 -12.857,21.897 z"
           style="fill:none;stroke:#000000;stroke-width:1.75100994;stroke-linecap:butt;stroke-linejoin:miter;stroke-miterlimit:4;stroke-opacity:1;stroke-dasharray:none"
           id="path5819"
           inkscape:connector-curvature="0" /><path
           d="m 351.495,449.655 c -0.429,0.357 -0.977,0.595 -1.549,0.595 -0.429,0 -1,-0.25 -1,-0.75 0,-0.524 0.631,-0.727 1.036,-0.858 l 0.596,-0.178 c 1.251,-0.37 2.215,-1.001 2.215,-2.454 0,-0.893 -0.215,-1.81 -0.929,-2.418 -0.703,-0.595 -1.644,-0.845 -2.549,-0.845 -1.131,0 -2.239,0.381 -3.156,1.024 l 1,1.882 c 0.584,-0.512 1.275,-0.929 2.073,-0.929 0.547,0 1.131,0.274 1.131,0.905 0,0.655 -0.917,0.881 -1.417,1.024 -1.465,0.417 -2.43,0.798 -2.43,2.537 0,1.822 1.299,3.013 3.097,3.013 0.905,0 2.013,-0.286 2.811,-0.738 l -0.929,-1.81 z"
           style="fill:#000000;fill-opacity:1;fill-rule:nonzero;stroke:none"
           id="path5821"
           inkscape:connector-curvature="0" /></g></g></g></svg>